G04*
G04 #@! TF.GenerationSoftware,Altium Limited,Altium Designer,18.0.12 (696)*
G04*
G04 Layer_Color=3368601*
%FSLAX44Y44*%
%MOMM*%
G71*
G01*
G75*
%ADD37O,2.4032X0.8032*%
G04:AMPARAMS|DCode=38|XSize=1.4732mm|YSize=1.3532mm|CornerRadius=0.2741mm|HoleSize=0mm|Usage=FLASHONLY|Rotation=270.000|XOffset=0mm|YOffset=0mm|HoleType=Round|Shape=RoundedRectangle|*
%AMROUNDEDRECTD38*
21,1,1.4732,0.8050,0,0,270.0*
21,1,0.9250,1.3532,0,0,270.0*
1,1,0.5482,-0.4025,-0.4625*
1,1,0.5482,-0.4025,0.4625*
1,1,0.5482,0.4025,0.4625*
1,1,0.5482,0.4025,-0.4625*
%
%ADD38ROUNDEDRECTD38*%
G04:AMPARAMS|DCode=46|XSize=1.1032mm|YSize=1.1032mm|CornerRadius=0.2366mm|HoleSize=0mm|Usage=FLASHONLY|Rotation=90.000|XOffset=0mm|YOffset=0mm|HoleType=Round|Shape=RoundedRectangle|*
%AMROUNDEDRECTD46*
21,1,1.1032,0.6300,0,0,90.0*
21,1,0.6300,1.1032,0,0,90.0*
1,1,0.4732,0.3150,0.3150*
1,1,0.4732,0.3150,-0.3150*
1,1,0.4732,-0.3150,-0.3150*
1,1,0.4732,-0.3150,0.3150*
%
%ADD46ROUNDEDRECTD46*%
G04:AMPARAMS|DCode=47|XSize=2.9032mm|YSize=1.3532mm|CornerRadius=0.3891mm|HoleSize=0mm|Usage=FLASHONLY|Rotation=270.000|XOffset=0mm|YOffset=0mm|HoleType=Round|Shape=RoundedRectangle|*
%AMROUNDEDRECTD47*
21,1,2.9032,0.5750,0,0,270.0*
21,1,2.1250,1.3532,0,0,270.0*
1,1,0.7782,-0.2875,-1.0625*
1,1,0.7782,-0.2875,1.0625*
1,1,0.7782,0.2875,1.0625*
1,1,0.7782,0.2875,-1.0625*
%
%ADD47ROUNDEDRECTD47*%
G04:AMPARAMS|DCode=50|XSize=1.4732mm|YSize=1.1532mm|CornerRadius=0.2441mm|HoleSize=0mm|Usage=FLASHONLY|Rotation=180.000|XOffset=0mm|YOffset=0mm|HoleType=Round|Shape=RoundedRectangle|*
%AMROUNDEDRECTD50*
21,1,1.4732,0.6650,0,0,180.0*
21,1,0.9850,1.1532,0,0,180.0*
1,1,0.4882,-0.4925,0.3325*
1,1,0.4882,0.4925,0.3325*
1,1,0.4882,0.4925,-0.3325*
1,1,0.4882,-0.4925,-0.3325*
%
%ADD50ROUNDEDRECTD50*%
G04:AMPARAMS|DCode=51|XSize=1.4732mm|YSize=1.1532mm|CornerRadius=0.2441mm|HoleSize=0mm|Usage=FLASHONLY|Rotation=270.000|XOffset=0mm|YOffset=0mm|HoleType=Round|Shape=RoundedRectangle|*
%AMROUNDEDRECTD51*
21,1,1.4732,0.6650,0,0,270.0*
21,1,0.9850,1.1532,0,0,270.0*
1,1,0.4882,-0.3325,-0.4925*
1,1,0.4882,-0.3325,0.4925*
1,1,0.4882,0.3325,0.4925*
1,1,0.4882,0.3325,-0.4925*
%
%ADD51ROUNDEDRECTD51*%
%ADD55C,3.4032*%
%ADD56C,3.4032*%
%ADD57C,3.4532*%
%ADD58C,0.9632*%
%ADD59C,1.2192*%
%ADD60C,0.9532*%
%ADD61C,1.8032*%
%ADD63C,0.5080*%
%ADD64C,0.8128*%
%ADD65C,0.9652*%
%ADD66C,1.6002*%
%ADD67C,1.4732*%
G04:AMPARAMS|DCode=93|XSize=1.4732mm|YSize=1.3532mm|CornerRadius=0.2741mm|HoleSize=0mm|Usage=FLASHONLY|Rotation=0.000|XOffset=0mm|YOffset=0mm|HoleType=Round|Shape=RoundedRectangle|*
%AMROUNDEDRECTD93*
21,1,1.4732,0.8050,0,0,0.0*
21,1,0.9250,1.3532,0,0,0.0*
1,1,0.5482,0.4625,-0.4025*
1,1,0.5482,-0.4625,-0.4025*
1,1,0.5482,-0.4625,0.4025*
1,1,0.5482,0.4625,0.4025*
%
%ADD93ROUNDEDRECTD93*%
%ADD94R,2.3532X1.3032*%
%ADD95R,2.3532X1.3032*%
%ADD96R,2.3532X3.7032*%
%ADD97R,4.8514X1.5748*%
%ADD98R,9.6012X11.0236*%
G04:AMPARAMS|DCode=99|XSize=1.1032mm|YSize=1.1032mm|CornerRadius=0.2366mm|HoleSize=0mm|Usage=FLASHONLY|Rotation=0.000|XOffset=0mm|YOffset=0mm|HoleType=Round|Shape=RoundedRectangle|*
%AMROUNDEDRECTD99*
21,1,1.1032,0.6300,0,0,0.0*
21,1,0.6300,1.1032,0,0,0.0*
1,1,0.4732,0.3150,-0.3150*
1,1,0.4732,-0.3150,-0.3150*
1,1,0.4732,-0.3150,0.3150*
1,1,0.4732,0.3150,0.3150*
%
%ADD99ROUNDEDRECTD99*%
G36*
X498565Y1375150D02*
X498695Y1375123D01*
X498822Y1375081D01*
X498941Y1375022D01*
X499052Y1374948D01*
X499152Y1374860D01*
X502962Y1371050D01*
X503050Y1370950D01*
X503124Y1370839D01*
X503183Y1370720D01*
X503226Y1370594D01*
X503251Y1370463D01*
X503260Y1370330D01*
Y1278890D01*
X503251Y1278757D01*
X503226Y1278626D01*
X503183Y1278500D01*
X503124Y1278381D01*
X503050Y1278270D01*
X502962Y1278170D01*
X497882Y1273090D01*
X497782Y1273002D01*
X497671Y1272928D01*
X497552Y1272869D01*
X497425Y1272827D01*
X497295Y1272801D01*
X497162Y1272792D01*
X464564D01*
X459318Y1267546D01*
Y1255208D01*
X459310Y1255075D01*
X459283Y1254945D01*
X459241Y1254818D01*
X459182Y1254699D01*
X459108Y1254588D01*
X459020Y1254488D01*
X457302Y1252770D01*
X457202Y1252682D01*
X457091Y1252608D01*
X456972Y1252549D01*
X456846Y1252506D01*
X456715Y1252480D01*
X456582Y1252472D01*
X447632D01*
X428268Y1252472D01*
X428135Y1252481D01*
X428004Y1252506D01*
X427878Y1252549D01*
X427759Y1252608D01*
X427648Y1252682D01*
X427548Y1252770D01*
X426084Y1254234D01*
X425996Y1254334D01*
X425922Y1254445D01*
X425863Y1254564D01*
X425821Y1254690D01*
X425794Y1254821D01*
X425786Y1254954D01*
Y1267546D01*
X420540Y1272792D01*
X386672D01*
X386539Y1272801D01*
X386408Y1272827D01*
X386282Y1272869D01*
X386163Y1272928D01*
X386052Y1273002D01*
X385952Y1273090D01*
X380872Y1278170D01*
X380784Y1278270D01*
X380710Y1278381D01*
X380651Y1278500D01*
X380608Y1278626D01*
X380583Y1278757D01*
X380574Y1278890D01*
Y1370330D01*
X380583Y1370463D01*
X380608Y1370594D01*
X380651Y1370720D01*
X380710Y1370839D01*
X380784Y1370950D01*
X380872Y1371050D01*
X384682Y1374860D01*
X384782Y1374948D01*
X384893Y1375022D01*
X385012Y1375081D01*
X385138Y1375123D01*
X385269Y1375150D01*
X385402Y1375158D01*
X498432D01*
X498565Y1375150D01*
D02*
G37*
G36*
X628613Y1374388D02*
X628744Y1374362D01*
X628870Y1374319D01*
X628989Y1374260D01*
X629100Y1374186D01*
X629200Y1374098D01*
X633010Y1370288D01*
X633098Y1370188D01*
X633172Y1370077D01*
X633231Y1369958D01*
X633274Y1369832D01*
X633299Y1369701D01*
X633308Y1369568D01*
Y1278128D01*
X633299Y1277995D01*
X633274Y1277865D01*
X633231Y1277738D01*
X633172Y1277619D01*
X633098Y1277508D01*
X633010Y1277408D01*
X627930Y1272328D01*
X627830Y1272240D01*
X627719Y1272166D01*
X627600Y1272107D01*
X627473Y1272065D01*
X627343Y1272038D01*
X627210Y1272030D01*
X594612D01*
X589366Y1266784D01*
Y1254446D01*
X589357Y1254313D01*
X589332Y1254183D01*
X589289Y1254056D01*
X589230Y1253937D01*
X589156Y1253826D01*
X589068Y1253726D01*
X587350Y1252008D01*
X587250Y1251920D01*
X587139Y1251846D01*
X587020Y1251787D01*
X586894Y1251745D01*
X586763Y1251719D01*
X586630Y1251710D01*
X577680D01*
X558316Y1251710D01*
X558183Y1251719D01*
X558052Y1251745D01*
X557926Y1251787D01*
X557807Y1251846D01*
X557696Y1251920D01*
X557596Y1252008D01*
X556132Y1253472D01*
X556044Y1253572D01*
X555970Y1253683D01*
X555911Y1253802D01*
X555868Y1253929D01*
X555843Y1254059D01*
X555834Y1254192D01*
Y1266784D01*
X550588Y1272030D01*
X516720D01*
X516587Y1272038D01*
X516456Y1272065D01*
X516330Y1272107D01*
X516211Y1272166D01*
X516100Y1272240D01*
X516000Y1272328D01*
X510920Y1277408D01*
X510832Y1277508D01*
X510758Y1277619D01*
X510699Y1277738D01*
X510657Y1277865D01*
X510630Y1277995D01*
X510622Y1278128D01*
Y1369568D01*
X510630Y1369701D01*
X510657Y1369832D01*
X510699Y1369958D01*
X510758Y1370077D01*
X510832Y1370188D01*
X510920Y1370288D01*
X514730Y1374098D01*
X514830Y1374186D01*
X514941Y1374260D01*
X515060Y1374319D01*
X515186Y1374362D01*
X515317Y1374388D01*
X515450Y1374396D01*
X628480D01*
X628613Y1374388D01*
D02*
G37*
G36*
X996659Y1378452D02*
X996789Y1378425D01*
X996916Y1378383D01*
X997035Y1378324D01*
X997146Y1378250D01*
X997246Y1378162D01*
X1001056Y1374352D01*
X1001144Y1374252D01*
X1001218Y1374141D01*
X1001277Y1374022D01*
X1001320Y1373896D01*
X1001345Y1373765D01*
X1001354Y1373632D01*
Y1282192D01*
X1001345Y1282059D01*
X1001320Y1281929D01*
X1001277Y1281802D01*
X1001218Y1281683D01*
X1001144Y1281572D01*
X1001056Y1281472D01*
X995976Y1276392D01*
X995876Y1276304D01*
X995765Y1276230D01*
X995646Y1276171D01*
X995519Y1276128D01*
X995389Y1276103D01*
X995256Y1276094D01*
X962658D01*
X957412Y1270848D01*
Y1258510D01*
X957403Y1258377D01*
X957377Y1258247D01*
X957335Y1258120D01*
X957276Y1258001D01*
X957202Y1257890D01*
X957114Y1257790D01*
X955396Y1256072D01*
X955296Y1255984D01*
X955185Y1255910D01*
X955066Y1255851D01*
X954939Y1255808D01*
X954809Y1255782D01*
X954676Y1255774D01*
X945726D01*
X926362Y1255774D01*
X926229Y1255783D01*
X926098Y1255808D01*
X925972Y1255851D01*
X925853Y1255910D01*
X925742Y1255984D01*
X925642Y1256072D01*
X924178Y1257536D01*
X924090Y1257636D01*
X924016Y1257747D01*
X923957Y1257866D01*
X923914Y1257992D01*
X923888Y1258123D01*
X923880Y1258256D01*
Y1270848D01*
X918634Y1276094D01*
X884766D01*
X884633Y1276103D01*
X884502Y1276128D01*
X884376Y1276171D01*
X884257Y1276230D01*
X884146Y1276304D01*
X884046Y1276392D01*
X878966Y1281472D01*
X878878Y1281572D01*
X878804Y1281683D01*
X878745Y1281802D01*
X878702Y1281929D01*
X878677Y1282059D01*
X878668Y1282192D01*
Y1373632D01*
X878677Y1373765D01*
X878702Y1373896D01*
X878745Y1374022D01*
X878804Y1374141D01*
X878878Y1374252D01*
X878966Y1374352D01*
X882776Y1378162D01*
X882876Y1378250D01*
X882987Y1378324D01*
X883106Y1378383D01*
X883232Y1378425D01*
X883363Y1378452D01*
X883496Y1378460D01*
X996526D01*
X996659Y1378452D01*
D02*
G37*
G36*
X1126623Y1378960D02*
X1126754Y1378934D01*
X1126880Y1378891D01*
X1126999Y1378832D01*
X1127110Y1378758D01*
X1127210Y1378670D01*
X1131020Y1374860D01*
X1131108Y1374760D01*
X1131182Y1374649D01*
X1131241Y1374530D01*
X1131283Y1374404D01*
X1131310Y1374273D01*
X1131318Y1374140D01*
Y1282700D01*
X1131310Y1282567D01*
X1131283Y1282437D01*
X1131241Y1282310D01*
X1131182Y1282191D01*
X1131108Y1282080D01*
X1131020Y1281980D01*
X1125940Y1276900D01*
X1125840Y1276812D01*
X1125729Y1276738D01*
X1125610Y1276679D01*
X1125483Y1276637D01*
X1125353Y1276610D01*
X1125220Y1276602D01*
X1092622D01*
X1087376Y1271356D01*
Y1259018D01*
X1087367Y1258885D01*
X1087342Y1258755D01*
X1087299Y1258628D01*
X1087240Y1258509D01*
X1087166Y1258398D01*
X1087078Y1258298D01*
X1085360Y1256580D01*
X1085260Y1256492D01*
X1085149Y1256418D01*
X1085030Y1256359D01*
X1084903Y1256317D01*
X1084773Y1256291D01*
X1084640Y1256282D01*
X1075690D01*
X1056326Y1256282D01*
X1056193Y1256291D01*
X1056062Y1256317D01*
X1055936Y1256359D01*
X1055817Y1256418D01*
X1055706Y1256492D01*
X1055606Y1256580D01*
X1054142Y1258044D01*
X1054054Y1258144D01*
X1053980Y1258255D01*
X1053921Y1258374D01*
X1053878Y1258501D01*
X1053853Y1258631D01*
X1053844Y1258764D01*
Y1271356D01*
X1048598Y1276602D01*
X1014730D01*
X1014597Y1276610D01*
X1014466Y1276637D01*
X1014340Y1276679D01*
X1014221Y1276738D01*
X1014110Y1276812D01*
X1014010Y1276900D01*
X1008930Y1281980D01*
X1008842Y1282080D01*
X1008768Y1282191D01*
X1008709Y1282310D01*
X1008667Y1282437D01*
X1008641Y1282567D01*
X1008632Y1282700D01*
Y1374140D01*
X1008641Y1374273D01*
X1008667Y1374404D01*
X1008709Y1374530D01*
X1008768Y1374649D01*
X1008842Y1374760D01*
X1008930Y1374860D01*
X1012740Y1378670D01*
X1012840Y1378758D01*
X1012951Y1378832D01*
X1013070Y1378891D01*
X1013196Y1378934D01*
X1013327Y1378960D01*
X1013460Y1378968D01*
X1126490D01*
X1126623Y1378960D01*
D02*
G37*
D37*
X366740Y992312D02*
D03*
Y1005012D02*
D03*
Y1017712D02*
D03*
Y1030412D02*
D03*
X414740Y992312D02*
D03*
Y1005012D02*
D03*
Y1017712D02*
D03*
Y1030412D02*
D03*
D38*
X449470Y1261110D02*
D03*
X467470D02*
D03*
X947818Y1263650D02*
D03*
X965818D02*
D03*
X598280Y1261110D02*
D03*
X580280D02*
D03*
X1096628Y1263650D02*
D03*
X1078628D02*
D03*
X416450Y1261110D02*
D03*
X434450D02*
D03*
X914798Y1263650D02*
D03*
X932798D02*
D03*
X547260Y1261110D02*
D03*
X565260D02*
D03*
X1045608Y1263650D02*
D03*
X1063608D02*
D03*
D46*
X738512Y1022350D02*
D03*
X723512D02*
D03*
X668902Y1027684D02*
D03*
X683902D02*
D03*
X669156Y1043940D02*
D03*
X684156D02*
D03*
X822078Y771398D02*
D03*
X807078D02*
D03*
D47*
X829564Y872744D02*
D03*
X859564D02*
D03*
D50*
X497331Y1190337D02*
D03*
Y1170337D02*
D03*
X997708Y1191862D02*
D03*
Y1171862D02*
D03*
X306070Y1253490D02*
D03*
Y1273490D02*
D03*
Y1359220D02*
D03*
Y1379220D02*
D03*
X803910Y1353980D02*
D03*
Y1373980D02*
D03*
X331470Y1253490D02*
D03*
Y1273490D02*
D03*
Y1359220D02*
D03*
Y1379220D02*
D03*
X829310Y1353980D02*
D03*
Y1373980D02*
D03*
X306070Y1217930D02*
D03*
Y1237930D02*
D03*
Y1323660D02*
D03*
Y1343660D02*
D03*
X803910Y1318420D02*
D03*
Y1338420D02*
D03*
X331470Y1217930D02*
D03*
Y1237930D02*
D03*
Y1323660D02*
D03*
Y1343660D02*
D03*
X829310Y1318420D02*
D03*
Y1338420D02*
D03*
X784178Y773590D02*
D03*
Y793590D02*
D03*
X750062Y878680D02*
D03*
Y858680D02*
D03*
X724662Y878426D02*
D03*
Y858426D02*
D03*
X699262Y878426D02*
D03*
Y858426D02*
D03*
X673608Y878426D02*
D03*
Y858426D02*
D03*
X946418Y1020592D02*
D03*
Y1000592D02*
D03*
D51*
X341826Y1031338D02*
D03*
X321826D02*
D03*
X464240Y1030322D02*
D03*
X484240D02*
D03*
X463839Y987447D02*
D03*
X483839D02*
D03*
D55*
X275085Y779503D02*
D03*
D56*
X1225000Y1475000D02*
D03*
X275000D02*
D03*
X1222502Y780796D02*
D03*
D57*
X560874Y847710D02*
D03*
X459274D02*
D03*
X416348Y847472D02*
D03*
X314748D02*
D03*
D58*
X541774Y911210D02*
D03*
X529074Y936610D02*
D03*
X516374Y911210D02*
D03*
X503674Y936610D02*
D03*
X490974Y911210D02*
D03*
X478274Y936610D02*
D03*
X397248Y910972D02*
D03*
X384548Y936372D02*
D03*
X371848Y910972D02*
D03*
X359148Y936372D02*
D03*
X346448Y910972D02*
D03*
X333748Y936372D02*
D03*
D59*
X599440Y877918D02*
D03*
Y903318D02*
D03*
X356870Y1295240D02*
D03*
X331470D02*
D03*
X306070D02*
D03*
X280670D02*
D03*
X854710Y1287780D02*
D03*
X829310D02*
D03*
X803910D02*
D03*
X778510D02*
D03*
X356870Y1400970D02*
D03*
X331470D02*
D03*
X306070D02*
D03*
X280670D02*
D03*
X854710Y1395730D02*
D03*
X829310D02*
D03*
X803910D02*
D03*
X778510D02*
D03*
X699008Y841756D02*
D03*
X724408D02*
D03*
X749808D02*
D03*
X673608D02*
D03*
X672592Y777240D02*
D03*
X748792D02*
D03*
X723392D02*
D03*
X697992D02*
D03*
X280924Y1098550D02*
D03*
Y1123950D02*
D03*
Y1149350D02*
D03*
Y1174750D02*
D03*
Y1073150D02*
D03*
D60*
X1210018Y1289050D02*
D03*
X1160018D02*
D03*
X1210018Y1394460D02*
D03*
X1160018D02*
D03*
X711670Y1286510D02*
D03*
X661670D02*
D03*
X711670Y1391920D02*
D03*
X661670D02*
D03*
D61*
X534162Y1432560D02*
D03*
X483870D02*
D03*
X1032510Y1435100D02*
D03*
X982218D02*
D03*
X1138188Y1057582D02*
D03*
Y1007290D02*
D03*
D63*
X307340Y1010920D02*
D03*
Y1003300D02*
D03*
Y1018540D02*
D03*
Y1026160D02*
D03*
X299720Y1003300D02*
D03*
Y1010920D02*
D03*
Y1018540D02*
D03*
Y1026160D02*
D03*
X292100Y1003300D02*
D03*
Y1010920D02*
D03*
Y1018540D02*
D03*
Y1026160D02*
D03*
X314960Y1003300D02*
D03*
Y1010920D02*
D03*
Y1018540D02*
D03*
Y1026160D02*
D03*
X384810Y1206246D02*
D03*
Y1221486D02*
D03*
Y1198626D02*
D03*
Y1213866D02*
D03*
Y1229106D02*
D03*
Y1191006D02*
D03*
X392430Y1229106D02*
D03*
Y1221486D02*
D03*
Y1213866D02*
D03*
Y1206246D02*
D03*
Y1198626D02*
D03*
Y1191006D02*
D03*
X397764Y1129792D02*
D03*
X413004D02*
D03*
X390144D02*
D03*
X405384D02*
D03*
X420624D02*
D03*
X382524D02*
D03*
X420624Y1122172D02*
D03*
X413004D02*
D03*
X405384D02*
D03*
X397764D02*
D03*
X390144D02*
D03*
X382524D02*
D03*
X982962Y1151618D02*
D03*
X927354Y1137158D02*
D03*
X983234Y1184402D02*
D03*
X1023620Y1168400D02*
D03*
Y1176020D02*
D03*
X691642Y1032256D02*
D03*
X699262D02*
D03*
X706882D02*
D03*
X714502D02*
D03*
X691642Y1024636D02*
D03*
X699262D02*
D03*
X706882D02*
D03*
X714502D02*
D03*
Y1009396D02*
D03*
X706882D02*
D03*
X699262D02*
D03*
X691642D02*
D03*
X714502Y1017016D02*
D03*
X706882D02*
D03*
X699262D02*
D03*
X691642D02*
D03*
X630936Y1180338D02*
D03*
X638556D02*
D03*
X646176D02*
D03*
X653796D02*
D03*
X630936Y1172718D02*
D03*
X638556D02*
D03*
X646176D02*
D03*
X653796D02*
D03*
Y1165098D02*
D03*
X646176D02*
D03*
X638556D02*
D03*
X630936D02*
D03*
X1116838Y1459484D02*
D03*
X1124458D02*
D03*
X1132078D02*
D03*
X1139698D02*
D03*
X1116838Y1451864D02*
D03*
X1124458D02*
D03*
X1132078D02*
D03*
X1139698D02*
D03*
Y1436624D02*
D03*
X1132078D02*
D03*
X1124458D02*
D03*
X1116838D02*
D03*
X1139698Y1444244D02*
D03*
X1132078D02*
D03*
X1124458D02*
D03*
X1116838D02*
D03*
X871982Y1460754D02*
D03*
X879602D02*
D03*
X887222D02*
D03*
X894842D02*
D03*
X871982Y1453134D02*
D03*
X879602D02*
D03*
X887222D02*
D03*
X894842D02*
D03*
Y1437894D02*
D03*
X887222D02*
D03*
X879602D02*
D03*
X871982D02*
D03*
X894842Y1445514D02*
D03*
X887222D02*
D03*
X879602D02*
D03*
X871982D02*
D03*
X602234Y1461008D02*
D03*
X609854D02*
D03*
X617474D02*
D03*
X625094D02*
D03*
X602234Y1453388D02*
D03*
X609854D02*
D03*
X617474D02*
D03*
X625094D02*
D03*
Y1438148D02*
D03*
X617474D02*
D03*
X609854D02*
D03*
X602234D02*
D03*
X625094Y1445768D02*
D03*
X617474D02*
D03*
X609854D02*
D03*
X602234D02*
D03*
X610254Y1001160D02*
D03*
X723392Y911606D02*
D03*
X731012D02*
D03*
X738632D02*
D03*
X746252D02*
D03*
X723392Y903986D02*
D03*
X731012D02*
D03*
X738632D02*
D03*
X746252D02*
D03*
Y919226D02*
D03*
X738632D02*
D03*
X731012D02*
D03*
X723392D02*
D03*
X746252Y926846D02*
D03*
X738632D02*
D03*
X731012D02*
D03*
X723392D02*
D03*
X604520Y1007110D02*
D03*
X626364Y987552D02*
D03*
X861314Y1183640D02*
D03*
X868934D02*
D03*
X876554D02*
D03*
X884174D02*
D03*
X861314Y1176020D02*
D03*
X868934D02*
D03*
X876554D02*
D03*
X884174D02*
D03*
Y1191260D02*
D03*
X876554D02*
D03*
X868934D02*
D03*
X861314D02*
D03*
X884174Y1198880D02*
D03*
X876554D02*
D03*
X868934D02*
D03*
X861314D02*
D03*
X700024Y1187450D02*
D03*
X707644D02*
D03*
X715264D02*
D03*
X722884D02*
D03*
X700024Y1179830D02*
D03*
X707644D02*
D03*
X715264D02*
D03*
X722884D02*
D03*
Y1195070D02*
D03*
X715264D02*
D03*
X707644D02*
D03*
X700024D02*
D03*
X722884Y1202690D02*
D03*
X715264D02*
D03*
X707644D02*
D03*
X700024D02*
D03*
X497332Y1159256D02*
D03*
X484632Y1189736D02*
D03*
X697992Y948182D02*
D03*
X687832Y1105408D02*
D03*
Y1097788D02*
D03*
X688340Y1089914D02*
D03*
X680212D02*
D03*
X680466Y1097788D02*
D03*
Y1105154D02*
D03*
X687832Y982726D02*
D03*
X509524Y1115822D02*
D03*
X358376Y973162D02*
D03*
X815340Y939800D02*
D03*
X822960D02*
D03*
X830580D02*
D03*
X838200D02*
D03*
X815340Y932180D02*
D03*
X822960D02*
D03*
X830580D02*
D03*
X838200D02*
D03*
Y916940D02*
D03*
X830580D02*
D03*
X822960D02*
D03*
X815340D02*
D03*
X838200Y924560D02*
D03*
X830580D02*
D03*
X822960D02*
D03*
X815340D02*
D03*
X927100Y881380D02*
D03*
X934720D02*
D03*
X927100Y873760D02*
D03*
X934720D02*
D03*
Y858520D02*
D03*
X927100D02*
D03*
X934720Y866140D02*
D03*
X927100D02*
D03*
X942340Y975360D02*
D03*
X949960D02*
D03*
X957580D02*
D03*
X934720D02*
D03*
Y967740D02*
D03*
X942340D02*
D03*
X949960D02*
D03*
X957580D02*
D03*
Y952500D02*
D03*
X949960D02*
D03*
X942340D02*
D03*
X934720D02*
D03*
Y960120D02*
D03*
X957580D02*
D03*
X949960D02*
D03*
X942340D02*
D03*
X1188720Y1130300D02*
D03*
X1196340D02*
D03*
X1203960D02*
D03*
X1181100D02*
D03*
Y1122680D02*
D03*
X1188720D02*
D03*
X1196340D02*
D03*
X1203960D02*
D03*
Y1107440D02*
D03*
X1196340D02*
D03*
X1188720D02*
D03*
X1181100D02*
D03*
X1203960Y1115060D02*
D03*
X1196340D02*
D03*
X1188720D02*
D03*
X1181100D02*
D03*
X1188720Y1203960D02*
D03*
X1196340D02*
D03*
X1203960D02*
D03*
X1211580D02*
D03*
X1188720Y1196340D02*
D03*
X1196340D02*
D03*
X1203960D02*
D03*
X1211580D02*
D03*
Y1181100D02*
D03*
X1203960D02*
D03*
X1196340D02*
D03*
X1188720D02*
D03*
X1211580Y1188720D02*
D03*
X1203960D02*
D03*
X1196340D02*
D03*
X1188720D02*
D03*
X635000Y784860D02*
D03*
X642620D02*
D03*
X650240D02*
D03*
X627380D02*
D03*
Y777240D02*
D03*
X635000D02*
D03*
X642620D02*
D03*
X650240D02*
D03*
Y792480D02*
D03*
X642620D02*
D03*
X635000D02*
D03*
X627380D02*
D03*
X1158240Y800100D02*
D03*
X650240D02*
D03*
X642620D02*
D03*
X635000D02*
D03*
X627380D02*
D03*
X1132840Y1234440D02*
D03*
Y1226820D02*
D03*
Y1219200D02*
D03*
Y1211580D02*
D03*
Y1203960D02*
D03*
Y1196340D02*
D03*
X1140460Y1234440D02*
D03*
Y1196340D02*
D03*
Y1211580D02*
D03*
Y1226820D02*
D03*
Y1203960D02*
D03*
Y1219200D02*
D03*
X1117600Y1249680D02*
D03*
Y1242060D02*
D03*
Y1234440D02*
D03*
Y1226820D02*
D03*
Y1219200D02*
D03*
Y1211580D02*
D03*
X1125220Y1249680D02*
D03*
Y1211580D02*
D03*
Y1226820D02*
D03*
Y1242060D02*
D03*
Y1219200D02*
D03*
Y1234440D02*
D03*
X988060Y1247140D02*
D03*
Y1239520D02*
D03*
Y1231900D02*
D03*
Y1224280D02*
D03*
Y1216660D02*
D03*
Y1209040D02*
D03*
X995680Y1247140D02*
D03*
Y1209040D02*
D03*
Y1224280D02*
D03*
Y1239520D02*
D03*
Y1216660D02*
D03*
Y1231900D02*
D03*
X490110Y1247140D02*
D03*
Y1239520D02*
D03*
Y1231900D02*
D03*
X497730Y1247140D02*
D03*
Y1239520D02*
D03*
Y1231900D02*
D03*
X624840Y1239520D02*
D03*
Y1247140D02*
D03*
Y1231900D02*
D03*
X632460D02*
D03*
X617220D02*
D03*
X632460Y1239520D02*
D03*
X617220D02*
D03*
X632460Y1247140D02*
D03*
X617220D02*
D03*
X1004316Y1163066D02*
D03*
X987708Y1193034D02*
D03*
X696722Y1159002D02*
D03*
X482346D02*
D03*
X627380Y1107440D02*
D03*
X753948Y1325042D02*
D03*
X652780Y1376680D02*
D03*
X668020D02*
D03*
Y1366520D02*
D03*
X652780D02*
D03*
X668020Y1356360D02*
D03*
X652780D02*
D03*
X668020Y1346200D02*
D03*
X652780D02*
D03*
X668020Y1336040D02*
D03*
X652780D02*
D03*
X668020Y1325880D02*
D03*
X652780D02*
D03*
X668020Y1315720D02*
D03*
X652780D02*
D03*
X668020Y1305560D02*
D03*
X652780D02*
D03*
X668020Y1275080D02*
D03*
X652780D02*
D03*
X668020Y1264920D02*
D03*
X652780D02*
D03*
X668020Y1254760D02*
D03*
X652780D02*
D03*
X660400Y1244600D02*
D03*
X645160D02*
D03*
X1165860Y1381760D02*
D03*
X1150620D02*
D03*
X1165860Y1371600D02*
D03*
X1150620D02*
D03*
X1165860Y1361440D02*
D03*
X1150620D02*
D03*
X1165860Y1351280D02*
D03*
X1150620D02*
D03*
X1165860Y1341120D02*
D03*
X1150620D02*
D03*
X1165860Y1330960D02*
D03*
X1150620D02*
D03*
X1165860Y1320800D02*
D03*
X1150620D02*
D03*
X1165860Y1310640D02*
D03*
X1150620D02*
D03*
X1165860Y1275080D02*
D03*
X1150620D02*
D03*
X1165860Y1264920D02*
D03*
X1150620D02*
D03*
X1158240Y1254760D02*
D03*
X1143000D02*
D03*
X1150620Y1244600D02*
D03*
X1135380D02*
D03*
X1165860Y1300480D02*
D03*
X1150620D02*
D03*
X668020Y1297940D02*
D03*
X652780D02*
D03*
X515620Y1203960D02*
D03*
Y1196340D02*
D03*
Y1188720D02*
D03*
Y1181100D02*
D03*
Y1173480D02*
D03*
Y1165860D02*
D03*
X523240Y1203960D02*
D03*
Y1165860D02*
D03*
Y1181100D02*
D03*
Y1196340D02*
D03*
Y1173480D02*
D03*
Y1188720D02*
D03*
X1016000Y1198880D02*
D03*
Y1191260D02*
D03*
Y1183640D02*
D03*
Y1176020D02*
D03*
Y1168400D02*
D03*
X1023620Y1183640D02*
D03*
Y1198880D02*
D03*
Y1191260D02*
D03*
D64*
X1060958Y1165860D02*
D03*
X930148Y1166114D02*
D03*
X395986Y1015238D02*
D03*
X396240Y1008380D02*
D03*
D65*
X1028700Y1257300D02*
D03*
X520700Y1254760D02*
D03*
D66*
X994029Y785368D02*
D03*
X391160Y1170940D02*
D03*
D67*
X994664Y1055116D02*
D03*
X1026428Y897032D02*
D03*
X1039128D02*
D03*
X1074674Y1413256D02*
D03*
X942086Y1412240D02*
D03*
X574294Y1412494D02*
D03*
X439674Y1409954D02*
D03*
D93*
X469900Y1170830D02*
D03*
Y1188830D02*
D03*
X968248Y1173370D02*
D03*
Y1191370D02*
D03*
X600710Y1170830D02*
D03*
Y1188830D02*
D03*
X1099058Y1173370D02*
D03*
Y1191370D02*
D03*
X582930Y1170830D02*
D03*
Y1188830D02*
D03*
X1081278Y1173370D02*
D03*
Y1191370D02*
D03*
X441300Y1021288D02*
D03*
Y1003288D02*
D03*
X942608Y1052392D02*
D03*
Y1070392D02*
D03*
X950468Y1173370D02*
D03*
Y1191370D02*
D03*
X452120Y1170830D02*
D03*
Y1188830D02*
D03*
D94*
X823964Y797674D02*
D03*
Y843674D02*
D03*
D95*
Y820674D02*
D03*
D96*
X885964Y820674D02*
D03*
D97*
X946670Y1036126D02*
D03*
Y1086926D02*
D03*
D98*
X1068554Y1061526D02*
D03*
D99*
X824992Y986402D02*
D03*
Y1001402D02*
D03*
X728726Y1060584D02*
D03*
Y1045584D02*
D03*
X700786Y983100D02*
D03*
Y998100D02*
D03*
X699008Y1057028D02*
D03*
Y1042028D02*
D03*
M02*
