G04*
G04 #@! TF.GenerationSoftware,Altium Limited,Altium Designer,18.0.12 (696)*
G04*
G04 Layer_Physical_Order=2*
G04 Layer_Color=65535*
%FSLAX44Y44*%
%MOMM*%
G71*
G01*
G75*
%ADD10C,0.3048*%
%ADD12C,0.4064*%
%ADD13C,0.2540*%
%ADD19O,2.2000X0.6000*%
G04:AMPARAMS|DCode=20|XSize=1.27mm|YSize=1.15mm|CornerRadius=0.1725mm|HoleSize=0mm|Usage=FLASHONLY|Rotation=270.000|XOffset=0mm|YOffset=0mm|HoleType=Round|Shape=RoundedRectangle|*
%AMROUNDEDRECTD20*
21,1,1.2700,0.8050,0,0,270.0*
21,1,0.9250,1.1500,0,0,270.0*
1,1,0.3450,-0.4025,-0.4625*
1,1,0.3450,-0.4025,0.4625*
1,1,0.3450,0.4025,0.4625*
1,1,0.3450,0.4025,-0.4625*
%
%ADD20ROUNDEDRECTD20*%
G04:AMPARAMS|DCode=28|XSize=0.9mm|YSize=0.9mm|CornerRadius=0.135mm|HoleSize=0mm|Usage=FLASHONLY|Rotation=90.000|XOffset=0mm|YOffset=0mm|HoleType=Round|Shape=RoundedRectangle|*
%AMROUNDEDRECTD28*
21,1,0.9000,0.6300,0,0,90.0*
21,1,0.6300,0.9000,0,0,90.0*
1,1,0.2700,0.3150,0.3150*
1,1,0.2700,0.3150,-0.3150*
1,1,0.2700,-0.3150,-0.3150*
1,1,0.2700,-0.3150,0.3150*
%
%ADD28ROUNDEDRECTD28*%
G04:AMPARAMS|DCode=29|XSize=2.7mm|YSize=1.15mm|CornerRadius=0.2875mm|HoleSize=0mm|Usage=FLASHONLY|Rotation=270.000|XOffset=0mm|YOffset=0mm|HoleType=Round|Shape=RoundedRectangle|*
%AMROUNDEDRECTD29*
21,1,2.7000,0.5750,0,0,270.0*
21,1,2.1250,1.1500,0,0,270.0*
1,1,0.5750,-0.2875,-1.0625*
1,1,0.5750,-0.2875,1.0625*
1,1,0.5750,0.2875,1.0625*
1,1,0.5750,0.2875,-1.0625*
%
%ADD29ROUNDEDRECTD29*%
G04:AMPARAMS|DCode=32|XSize=1.27mm|YSize=0.95mm|CornerRadius=0.1425mm|HoleSize=0mm|Usage=FLASHONLY|Rotation=180.000|XOffset=0mm|YOffset=0mm|HoleType=Round|Shape=RoundedRectangle|*
%AMROUNDEDRECTD32*
21,1,1.2700,0.6650,0,0,180.0*
21,1,0.9850,0.9500,0,0,180.0*
1,1,0.2850,-0.4925,0.3325*
1,1,0.2850,0.4925,0.3325*
1,1,0.2850,0.4925,-0.3325*
1,1,0.2850,-0.4925,-0.3325*
%
%ADD32ROUNDEDRECTD32*%
G04:AMPARAMS|DCode=33|XSize=1.27mm|YSize=0.95mm|CornerRadius=0.1425mm|HoleSize=0mm|Usage=FLASHONLY|Rotation=270.000|XOffset=0mm|YOffset=0mm|HoleType=Round|Shape=RoundedRectangle|*
%AMROUNDEDRECTD33*
21,1,1.2700,0.6650,0,0,270.0*
21,1,0.9850,0.9500,0,0,270.0*
1,1,0.2850,-0.3325,-0.4925*
1,1,0.2850,-0.3325,0.4925*
1,1,0.2850,0.3325,0.4925*
1,1,0.2850,0.3325,-0.4925*
%
%ADD33ROUNDEDRECTD33*%
%ADD68C,0.5080*%
%ADD69C,0.6350*%
%ADD70C,4.0000*%
%ADD71C,1.5240*%
%ADD72C,1.6510*%
%ADD73R,1.6510X1.6510*%
%ADD74R,1.5240X1.5240*%
%ADD75R,2.5400X2.5400*%
%ADD76R,1.5000X1.8000*%
%ADD77R,3.1000X2.4000*%
%ADD78R,2.5400X2.5400*%
%ADD79R,1.6510X1.6510*%
%ADD80R,1.8000X1.5000*%
%ADD81C,0.6096*%
%ADD82C,0.7000*%
%ADD83C,1.3970*%
%ADD84C,1.2700*%
G04:AMPARAMS|DCode=85|XSize=1.27mm|YSize=1.15mm|CornerRadius=0.1725mm|HoleSize=0mm|Usage=FLASHONLY|Rotation=0.000|XOffset=0mm|YOffset=0mm|HoleType=Round|Shape=RoundedRectangle|*
%AMROUNDEDRECTD85*
21,1,1.2700,0.8050,0,0,0.0*
21,1,0.9250,1.1500,0,0,0.0*
1,1,0.3450,0.4625,-0.4025*
1,1,0.3450,-0.4625,-0.4025*
1,1,0.3450,-0.4625,0.4025*
1,1,0.3450,0.4625,0.4025*
%
%ADD85ROUNDEDRECTD85*%
%ADD86R,2.1500X1.1000*%
%ADD87R,2.1500X1.1000*%
%ADD88R,2.1500X3.5000*%
%ADD89R,4.6482X1.3716*%
%ADD90R,9.3980X10.8204*%
G04:AMPARAMS|DCode=91|XSize=0.9mm|YSize=0.9mm|CornerRadius=0.135mm|HoleSize=0mm|Usage=FLASHONLY|Rotation=0.000|XOffset=0mm|YOffset=0mm|HoleType=Round|Shape=RoundedRectangle|*
%AMROUNDEDRECTD91*
21,1,0.9000,0.6300,0,0,0.0*
21,1,0.6300,0.9000,0,0,0.0*
1,1,0.2700,0.3150,-0.3150*
1,1,0.2700,-0.3150,-0.3150*
1,1,0.2700,-0.3150,0.3150*
1,1,0.2700,0.3150,0.3150*
%
%ADD91ROUNDEDRECTD91*%
%ADD92C,0.7620*%
G36*
X1118750Y1392030D02*
Y1377950D01*
X1126490D01*
X1130300Y1374140D01*
Y1282700D01*
X1125220Y1277620D01*
X1092200D01*
X1086358Y1271778D01*
Y1259018D01*
X1084640Y1257300D01*
X1075690D01*
X1056326Y1257300D01*
X1054862Y1258764D01*
Y1271778D01*
X1049020Y1277620D01*
X1014730D01*
X1009650Y1282700D01*
Y1374140D01*
X1013460Y1377950D01*
X1017150D01*
Y1466960D01*
X1043820D01*
X1118750Y1392030D01*
D02*
G37*
G36*
X994978Y1377442D02*
X996526D01*
X1000336Y1373632D01*
Y1282192D01*
X995256Y1277112D01*
X962236D01*
X956394Y1271270D01*
Y1258510D01*
X954676Y1256792D01*
X945726D01*
X926362Y1256792D01*
X924898Y1258256D01*
Y1271270D01*
X919056Y1277112D01*
X884766D01*
X879686Y1282192D01*
Y1373632D01*
X883496Y1377442D01*
X893378D01*
Y1390988D01*
X968308Y1465918D01*
X994978D01*
Y1377442D01*
D02*
G37*
G36*
X1171702Y1267968D02*
X1171448D01*
Y1258062D01*
X1152746Y1239360D01*
X1146048D01*
X1146048Y1214641D01*
X1156320Y1188720D01*
X1120394D01*
X1120394Y1197102D01*
X1111758Y1205738D01*
X1105408D01*
X1105408Y1221740D01*
X1001999D01*
X1001999Y1202690D01*
X979551Y1202690D01*
X973201D01*
X973201Y1221740D01*
X636239Y1221740D01*
X636239Y1214882D01*
X607441Y1214882D01*
Y1221740D01*
X505460D01*
Y1217422D01*
X475361D01*
X475361Y1252220D01*
X499999Y1252220D01*
X505460Y1246759D01*
Y1245108D01*
X607441D01*
Y1249680D01*
X628396Y1249680D01*
X627380Y1252220D01*
X635000D01*
X649024Y1264191D01*
X648522Y1399540D01*
X673608D01*
Y1262380D01*
X673354D01*
Y1252474D01*
X665988Y1245108D01*
X973201Y1245108D01*
Y1252220D01*
X997839Y1252220D01*
X1001999Y1248061D01*
Y1245108D01*
X1105408D01*
Y1255268D01*
X1126490Y1255268D01*
X1126490Y1255268D01*
X1130119D01*
X1147108Y1272258D01*
X1146616Y1405128D01*
X1171702D01*
Y1267968D01*
D02*
G37*
G36*
X495868Y1374140D02*
X498432D01*
X502242Y1370330D01*
Y1278890D01*
X497162Y1273810D01*
X464142D01*
X458300Y1267968D01*
Y1255208D01*
X456582Y1253490D01*
X447632D01*
X428268Y1253490D01*
X426804Y1254954D01*
Y1267968D01*
X420962Y1273810D01*
X386672D01*
X381592Y1278890D01*
Y1370330D01*
X385402Y1374140D01*
X394268D01*
Y1388956D01*
X469198Y1463886D01*
X495868D01*
Y1374140D01*
D02*
G37*
G36*
X621926Y1389998D02*
Y1373378D01*
X628480D01*
X632290Y1369568D01*
Y1278128D01*
X627210Y1273048D01*
X594190D01*
X588348Y1267206D01*
Y1254446D01*
X586630Y1252728D01*
X577680D01*
X558316Y1252728D01*
X556852Y1254192D01*
Y1267206D01*
X551010Y1273048D01*
X516720D01*
X511640Y1278128D01*
Y1369568D01*
X515450Y1373378D01*
X520326D01*
Y1464928D01*
X546996D01*
X621926Y1389998D01*
D02*
G37*
G36*
X363982Y1216981D02*
X349559Y1202558D01*
X345749Y1204136D01*
Y1231392D01*
X345532Y1232482D01*
X344914Y1233406D01*
X344914Y1233406D01*
X339402Y1238919D01*
Y1241255D01*
X339173Y1242406D01*
X338521Y1243381D01*
X338157Y1243624D01*
X337818Y1245710D01*
X338157Y1247796D01*
X338521Y1248039D01*
X339173Y1249014D01*
X339402Y1250165D01*
Y1256815D01*
X339173Y1257966D01*
X338521Y1258941D01*
X337546Y1259593D01*
X336395Y1259822D01*
X326545D01*
X325394Y1259593D01*
X324419Y1258941D01*
X323767Y1257966D01*
X323538Y1256815D01*
Y1250165D01*
X323767Y1249014D01*
X324419Y1248039D01*
X324783Y1247796D01*
X325122Y1245710D01*
X324783Y1243624D01*
X324419Y1243381D01*
X323767Y1242406D01*
X323538Y1241255D01*
Y1234605D01*
X323767Y1233454D01*
X324419Y1232479D01*
X325394Y1231827D01*
X326545Y1231598D01*
X336395D01*
X336853Y1231689D01*
X339187Y1229923D01*
X340051Y1228919D01*
Y1203108D01*
X323614Y1186670D01*
X322996Y1185746D01*
X322779Y1184656D01*
X322779Y1184656D01*
Y1176054D01*
X318969Y1174475D01*
X294187Y1199258D01*
Y1236956D01*
X294328Y1237051D01*
X298138Y1235014D01*
Y1234605D01*
X298367Y1233454D01*
X299019Y1232479D01*
X299994Y1231827D01*
X301145Y1231598D01*
X310995D01*
X312146Y1231827D01*
X313121Y1232479D01*
X313773Y1233454D01*
X314002Y1234605D01*
Y1241255D01*
X313773Y1242406D01*
X313121Y1243381D01*
X312757Y1243624D01*
X312418Y1245710D01*
X312757Y1247796D01*
X313121Y1248039D01*
X313773Y1249014D01*
X314002Y1250165D01*
Y1256815D01*
X313773Y1257966D01*
X313121Y1258941D01*
X312146Y1259593D01*
X310995Y1259822D01*
X301145D01*
X299994Y1259593D01*
X299019Y1258941D01*
X298367Y1257966D01*
X298138Y1256815D01*
Y1252889D01*
X289324Y1244074D01*
X288706Y1243150D01*
X288489Y1242060D01*
X288489Y1242060D01*
Y1198078D01*
X288489Y1198078D01*
X288706Y1196988D01*
X289324Y1196064D01*
X291399Y1193989D01*
X289820Y1190179D01*
X279684D01*
X261421Y1208442D01*
Y1331494D01*
X262919Y1332992D01*
X363982D01*
X363982Y1216981D01*
D02*
G37*
G36*
X1207017Y1487016D02*
X1205018Y1483277D01*
X1203787Y1479219D01*
X1203372Y1475000D01*
X1203787Y1470780D01*
X1205018Y1466723D01*
X1207017Y1462984D01*
X1209707Y1459707D01*
X1212984Y1457017D01*
X1216723Y1455018D01*
X1220780Y1453787D01*
X1225000Y1453372D01*
X1229219Y1453787D01*
X1233277Y1455018D01*
X1237016Y1457017D01*
X1240293Y1459707D01*
X1240790Y1460312D01*
X1244600Y1458948D01*
X1244600Y833908D01*
X1241067Y832482D01*
X1234031Y839779D01*
X1234016Y839786D01*
X1234010Y839800D01*
X1233440Y840036D01*
X1232874Y840283D01*
X1232859Y840277D01*
X1232844Y840284D01*
X1187704Y840284D01*
X1186538Y839800D01*
X1160679Y813942D01*
X927608Y813942D01*
X927089Y813726D01*
X926552Y813559D01*
X922676Y810330D01*
X919226Y811946D01*
Y854174D01*
X899922D01*
X899922Y788416D01*
X868172Y788416D01*
Y784732D01*
X837613D01*
X834907Y787438D01*
X836238Y790650D01*
X836238D01*
Y801827D01*
X838200Y802640D01*
X838714Y803154D01*
X838714Y807514D01*
Y810254D01*
X835660Y813308D01*
X814380D01*
X802640Y805180D01*
Y784860D01*
X812800Y774700D01*
Y767080D01*
X812483Y767397D01*
X804863D01*
X795020Y777240D01*
Y812800D01*
X810260Y828040D01*
X835660D01*
X838714Y831094D01*
Y843280D01*
X838072D01*
Y888492D01*
X837588Y889658D01*
X836318Y890928D01*
X835152Y891412D01*
X821328Y891412D01*
X742656Y970084D01*
Y985520D01*
Y1016467D01*
X742783Y1016493D01*
X743734Y1017128D01*
X744369Y1018079D01*
X744592Y1019200D01*
Y1022570D01*
X754770Y1032748D01*
X755668Y1034092D01*
X755984Y1035678D01*
Y1055740D01*
X755668Y1057325D01*
X754770Y1058670D01*
X751303Y1062137D01*
X751197Y1062671D01*
X750298Y1064015D01*
X748954Y1064913D01*
X747368Y1065229D01*
X734334D01*
X733948Y1065806D01*
X732997Y1066441D01*
X731876Y1066664D01*
X725576D01*
X724455Y1066441D01*
X723504Y1065806D01*
X722869Y1064855D01*
X722815Y1064586D01*
X722509Y1064381D01*
X721498Y1062869D01*
X721441Y1062581D01*
X720032Y1061172D01*
X704891D01*
X704865Y1061299D01*
X704230Y1062250D01*
X703279Y1062885D01*
X702158Y1063108D01*
X698788D01*
X697246Y1064650D01*
X695902Y1065548D01*
X695022Y1065723D01*
X695034Y1065784D01*
X694679Y1067568D01*
X693668Y1069080D01*
X692156Y1070091D01*
X690372Y1070446D01*
X688588Y1070091D01*
X687076Y1069080D01*
X686065Y1067568D01*
X685726Y1065864D01*
X675372D01*
X673786Y1065548D01*
X672442Y1064650D01*
X667284Y1059492D01*
X663474Y1060989D01*
Y1075490D01*
X663159Y1077075D01*
X662261Y1078419D01*
X648663Y1092017D01*
X648715Y1092629D01*
X650164Y1095904D01*
X650754Y1096021D01*
X652266Y1097032D01*
X655904Y1096223D01*
X659399Y1092728D01*
X659294Y1092200D01*
X659649Y1090416D01*
X660660Y1088904D01*
X662172Y1087893D01*
X663956Y1087538D01*
X665740Y1087893D01*
X667252Y1088904D01*
X668263Y1090416D01*
X668618Y1092200D01*
X668263Y1093984D01*
X667252Y1095496D01*
X665740Y1096507D01*
X663956Y1096862D01*
X663428Y1096757D01*
X657842Y1102342D01*
X656918Y1102960D01*
X655828Y1103177D01*
X655828Y1103177D01*
X652565D01*
X652266Y1103624D01*
X650754Y1104635D01*
X648970Y1104990D01*
X647186Y1104635D01*
X645674Y1103624D01*
X644663Y1102112D01*
X644546Y1101522D01*
X641271Y1100073D01*
X640658Y1100022D01*
X631744Y1108936D01*
X631687Y1109224D01*
X630676Y1110736D01*
X629164Y1111747D01*
X627380Y1112102D01*
X625596Y1111747D01*
X624084Y1110736D01*
X623073Y1109224D01*
X622718Y1107440D01*
X623073Y1105656D01*
X624084Y1104144D01*
X625596Y1103133D01*
X625884Y1103076D01*
X655187Y1073773D01*
Y1055919D01*
X653619Y1053022D01*
X651637Y1052083D01*
X651504Y1052057D01*
X649992Y1051046D01*
X648981Y1049534D01*
X648626Y1047750D01*
X648981Y1045966D01*
X649992Y1044454D01*
X651504Y1043443D01*
X653288Y1043088D01*
X653816Y1043193D01*
X655084Y1041926D01*
X656008Y1041308D01*
X657098Y1041091D01*
X657098Y1041091D01*
X663076D01*
Y1040790D01*
X663299Y1039669D01*
X663934Y1038718D01*
X664885Y1038083D01*
X665012Y1038057D01*
Y1033617D01*
X664631Y1033541D01*
X663680Y1032906D01*
X663045Y1031955D01*
X659157Y1031940D01*
X658150Y1032510D01*
X657795Y1034294D01*
X656785Y1035806D01*
X655272Y1036817D01*
X653488Y1037172D01*
X651705Y1036817D01*
X650192Y1035806D01*
X649182Y1034294D01*
X648827Y1032510D01*
X649182Y1030726D01*
X650192Y1029214D01*
X651705Y1028203D01*
X653077Y1027930D01*
X655338Y1025670D01*
X655338Y1025670D01*
X656262Y1025052D01*
X657352Y1024835D01*
X662822D01*
Y1024534D01*
X663045Y1023413D01*
X663680Y1022462D01*
X664631Y1021827D01*
X665752Y1021604D01*
X672052D01*
X673173Y1021827D01*
X674124Y1022462D01*
X674759Y1023413D01*
X674982Y1024534D01*
Y1030834D01*
X674759Y1031955D01*
X674124Y1032906D01*
X673300Y1033457D01*
Y1038057D01*
X673427Y1038083D01*
X674378Y1038718D01*
X675013Y1039669D01*
X675236Y1040790D01*
Y1047090D01*
X675013Y1048211D01*
X674378Y1049162D01*
X673427Y1049797D01*
X673300Y1049823D01*
Y1053788D01*
X677088Y1057576D01*
X692600D01*
X692928Y1057248D01*
Y1053878D01*
X693151Y1052757D01*
X693786Y1051806D01*
X694737Y1051171D01*
X695858Y1050948D01*
X702158D01*
X703279Y1051171D01*
X704230Y1051806D01*
X704865Y1052757D01*
X704891Y1052884D01*
X721748D01*
X723334Y1053200D01*
X724678Y1054098D01*
X725166Y1054585D01*
X725576Y1054504D01*
X731876D01*
X732997Y1054727D01*
X733948Y1055362D01*
X734583Y1056313D01*
X734708Y1056941D01*
X744778D01*
X747696Y1054023D01*
Y1037394D01*
X743726Y1033424D01*
X743210Y1033769D01*
X741426Y1034124D01*
X739642Y1033769D01*
X738130Y1032758D01*
X737119Y1031246D01*
X736764Y1029462D01*
X735918Y1028430D01*
X735362D01*
X734241Y1028207D01*
X733290Y1027572D01*
X732655Y1026621D01*
X732432Y1025500D01*
Y1019200D01*
X732655Y1018079D01*
X733290Y1017128D01*
X734241Y1016493D01*
X734368Y1016467D01*
Y987244D01*
X706669D01*
X706643Y987371D01*
X706008Y988322D01*
X705057Y988957D01*
X703936Y989180D01*
X697636D01*
X696515Y988957D01*
X695564Y988322D01*
X694929Y987371D01*
X694901Y987233D01*
X691892Y986197D01*
X690896Y986178D01*
X689616Y987033D01*
X687832Y987388D01*
X686048Y987033D01*
X684536Y986022D01*
X684237Y985575D01*
X658876D01*
X658876Y985575D01*
X657786Y985358D01*
X656862Y984740D01*
X656862Y984740D01*
X624858Y952736D01*
X624240Y951812D01*
X624023Y950722D01*
X624023Y950722D01*
Y932914D01*
X620213Y931335D01*
X606861Y944688D01*
Y989582D01*
X607137Y989995D01*
X607374Y991185D01*
Y993885D01*
X610032Y996543D01*
X610254Y996499D01*
X612038Y996853D01*
X613550Y997864D01*
X614561Y999376D01*
X614916Y1001160D01*
X614561Y1002944D01*
X613550Y1004456D01*
X612038Y1005467D01*
X609182Y1007110D01*
X608827Y1008894D01*
X607816Y1010406D01*
X606304Y1011417D01*
X604520Y1011772D01*
X602736Y1011417D01*
X601224Y1010406D01*
X600213Y1008894D01*
X599858Y1007110D01*
X600174Y1005523D01*
X597934Y1003282D01*
X597316Y1002358D01*
X597099Y1001268D01*
X597099Y1001268D01*
Y999771D01*
X596353Y999165D01*
X592576Y997960D01*
X591064Y998971D01*
X589280Y999326D01*
X588772Y999743D01*
Y1075889D01*
X610960D01*
X621229Y1065620D01*
Y989838D01*
X621229Y989838D01*
X621446Y988748D01*
X621827Y988178D01*
X621702Y987552D01*
X622057Y985768D01*
X623068Y984256D01*
X624580Y983245D01*
X626364Y982890D01*
X628148Y983245D01*
X630820Y980449D01*
X631162Y978989D01*
X630947Y978668D01*
X630592Y976884D01*
X630947Y975100D01*
X631958Y973588D01*
X633470Y972577D01*
X635254Y972222D01*
X637038Y972577D01*
X638550Y973588D01*
X639561Y975100D01*
X639916Y976884D01*
X639561Y978668D01*
X638550Y980180D01*
X640721Y983267D01*
X643018Y985563D01*
X643018Y985563D01*
X643635Y986488D01*
X643852Y987578D01*
X643852Y987578D01*
Y1038952D01*
X643852Y1038953D01*
X643635Y1040043D01*
X643018Y1040967D01*
X634293Y1049692D01*
Y1076709D01*
X634293Y1076709D01*
X634076Y1077799D01*
X633458Y1078723D01*
X633458Y1078724D01*
X624317Y1087864D01*
X623393Y1088482D01*
X622303Y1088699D01*
X622303Y1088699D01*
X588772D01*
Y1130046D01*
X592582Y1130046D01*
X693873D01*
Y1108743D01*
X693685Y1108462D01*
X693330Y1106678D01*
X693685Y1104894D01*
X694696Y1103382D01*
X696208Y1102371D01*
X697992Y1102016D01*
X699776Y1102371D01*
X701288Y1103382D01*
X702299Y1104894D01*
X702654Y1106678D01*
X702299Y1108462D01*
X701288Y1109974D01*
X699776Y1110985D01*
X699571Y1111025D01*
Y1130046D01*
X731403Y1130046D01*
X732861Y1126526D01*
X710966Y1104631D01*
X710438Y1104736D01*
X708654Y1104381D01*
X707142Y1103370D01*
X706131Y1101858D01*
X705776Y1100074D01*
X706131Y1098290D01*
X707142Y1096778D01*
X708654Y1095767D01*
X710438Y1095412D01*
X712549Y1095078D01*
X713434Y1093210D01*
X714444Y1091698D01*
X715957Y1090687D01*
X717740Y1090332D01*
X719524Y1090687D01*
X721037Y1091698D01*
X722047Y1093210D01*
X722402Y1094994D01*
X722181Y1096104D01*
X726223Y1100146D01*
X745298D01*
X745298Y1100146D01*
X746388Y1100363D01*
X747313Y1100981D01*
X774799Y1128467D01*
X791527D01*
X792458Y1124657D01*
X792220Y1124447D01*
X791524Y1123982D01*
X790708Y1123436D01*
X789697Y1121924D01*
X789342Y1120140D01*
X789697Y1118356D01*
X790708Y1116844D01*
X791155Y1116545D01*
Y1078902D01*
X772942Y1060689D01*
X772414Y1060794D01*
X770630Y1060439D01*
X769118Y1059428D01*
X768107Y1057916D01*
X767752Y1056132D01*
X768107Y1054348D01*
X769118Y1052836D01*
X770630Y1051825D01*
X772414Y1051470D01*
X774203Y1049522D01*
X774309Y1049364D01*
X775480Y1045954D01*
X774862Y1045030D01*
X774645Y1043940D01*
X774862Y1042850D01*
X775102Y1042490D01*
X775219Y1041902D01*
X775746Y1041114D01*
X775117Y1037916D01*
X774645Y1036866D01*
X773439Y1036060D01*
X772428Y1034548D01*
X772074Y1032764D01*
X772428Y1030980D01*
X773439Y1029468D01*
X774951Y1028457D01*
X776735Y1028102D01*
X778519Y1028457D01*
X780031Y1029468D01*
X780454Y1030100D01*
X780616Y1030132D01*
X781540Y1030750D01*
X823450Y1072660D01*
X824068Y1073584D01*
X824285Y1074674D01*
X824285Y1074674D01*
Y1113751D01*
X824732Y1114050D01*
X825743Y1115562D01*
X826098Y1117346D01*
X825743Y1119130D01*
X824732Y1120642D01*
X823220Y1121653D01*
X821436Y1122008D01*
X819652Y1121653D01*
X817982Y1120689D01*
X815588Y1121404D01*
X814076Y1122415D01*
X812292Y1122770D01*
X810508Y1122415D01*
X808996Y1121404D01*
X806444Y1121150D01*
X804932Y1122161D01*
X803148Y1122516D01*
X801834Y1122254D01*
X801364Y1122161D01*
X801364Y1122161D01*
X798934Y1121972D01*
X797300Y1123436D01*
X795788Y1124447D01*
X795550Y1124657D01*
X796481Y1128467D01*
X868172D01*
Y996051D01*
X864652Y994593D01*
X855828Y1003416D01*
X854904Y1004034D01*
X853814Y1004251D01*
X853814Y1004251D01*
X831072D01*
Y1004552D01*
X830849Y1005673D01*
X830214Y1006624D01*
X829263Y1007259D01*
X828142Y1007482D01*
X821842D01*
X820721Y1007259D01*
X819770Y1006624D01*
X819135Y1005673D01*
X819041Y1005200D01*
X816016Y1004673D01*
X815166Y1004708D01*
X812023Y1007852D01*
X812128Y1008380D01*
X811773Y1010164D01*
X810762Y1011676D01*
X809250Y1012687D01*
X807466Y1013042D01*
X805682Y1012687D01*
X804170Y1011676D01*
X803159Y1010164D01*
X802804Y1008380D01*
X803159Y1006596D01*
X804170Y1005084D01*
X805682Y1004073D01*
X807466Y1003718D01*
X807994Y1003823D01*
X812430Y999388D01*
X812430Y999388D01*
X813354Y998770D01*
X814444Y998553D01*
X818912D01*
Y998252D01*
X819135Y997131D01*
X819770Y996180D01*
X820721Y995545D01*
X821842Y995322D01*
X828142D01*
X829263Y995545D01*
X830214Y996180D01*
X830849Y997131D01*
X831072Y998252D01*
Y998553D01*
X852634D01*
X863826Y987361D01*
X863510Y985774D01*
X863865Y983990D01*
X864876Y982478D01*
X866388Y981467D01*
X868172Y981112D01*
Y895858D01*
X919226D01*
Y1012443D01*
X923036Y1014021D01*
X923662Y1013396D01*
X924828Y1012912D01*
X968008D01*
X969174Y1013396D01*
X971714Y1015936D01*
X972198Y1017102D01*
Y1055202D01*
X971714Y1056368D01*
X969174Y1058908D01*
X968008Y1059391D01*
X948629Y1059391D01*
X948565Y1059435D01*
X948501Y1059795D01*
Y1062989D01*
X948565Y1063349D01*
X949108Y1063712D01*
X970592Y1063712D01*
X996324Y1037980D01*
X996363Y1037964D01*
X996381Y1037926D01*
X996941Y1037725D01*
X997491Y1037497D01*
X997530Y1037513D01*
X997569Y1037499D01*
X1002214Y1037720D01*
X1002697Y1037948D01*
X1003204Y1038111D01*
X1005893Y1040397D01*
X1005925Y1040461D01*
X1005990Y1040488D01*
X1006208Y1041014D01*
X1006468Y1041521D01*
X1006447Y1041589D01*
X1006474Y1041654D01*
Y1108710D01*
X1005990Y1109876D01*
X1001078Y1114789D01*
X999912Y1115272D01*
X926678Y1115272D01*
X925512Y1114788D01*
X923036Y1112313D01*
X919226Y1113891D01*
Y1128467D01*
X962660D01*
X962660Y1128467D01*
X963750Y1128684D01*
X964674Y1129302D01*
X982435Y1147062D01*
X982962Y1146957D01*
X984746Y1147312D01*
X986259Y1148322D01*
X987269Y1149835D01*
X987624Y1151618D01*
X987269Y1153402D01*
X986259Y1154915D01*
X984746Y1155925D01*
X982962Y1156280D01*
X981179Y1155925D01*
X979666Y1154915D01*
X978656Y1153402D01*
X978301Y1151618D01*
X978406Y1151091D01*
X961480Y1134165D01*
X935086D01*
X932016Y1137158D01*
X931661Y1138942D01*
X930650Y1140454D01*
X929138Y1141465D01*
X927354Y1141820D01*
X925570Y1141465D01*
X924058Y1140454D01*
X923759Y1140007D01*
X919226D01*
Y1140460D01*
X699571D01*
Y1155407D01*
X700018Y1155706D01*
X701029Y1157218D01*
X701384Y1159002D01*
X701029Y1160786D01*
X700018Y1162298D01*
X698506Y1163309D01*
X696722Y1163664D01*
X694938Y1163309D01*
X693426Y1162298D01*
X692415Y1160786D01*
X692060Y1159002D01*
X692415Y1157218D01*
X693426Y1155706D01*
X693873Y1155407D01*
Y1140460D01*
X548187D01*
Y1157693D01*
X548634Y1157992D01*
X549645Y1159504D01*
X550000Y1161288D01*
X549645Y1163072D01*
X548634Y1164584D01*
X547122Y1165595D01*
X545338Y1165950D01*
X543554Y1165595D01*
X542042Y1164584D01*
X541031Y1163072D01*
X540676Y1161288D01*
X541031Y1159504D01*
X542042Y1157992D01*
X542489Y1157693D01*
Y1140669D01*
X542177Y1140460D01*
X485195D01*
Y1155407D01*
X485642Y1155706D01*
X486653Y1157218D01*
X487008Y1159002D01*
X486653Y1160786D01*
X485642Y1162298D01*
X484130Y1163309D01*
X482346Y1163664D01*
X480562Y1163309D01*
X479050Y1162298D01*
X478039Y1160786D01*
X477684Y1159002D01*
X478039Y1157218D01*
X479050Y1155706D01*
X479497Y1155407D01*
Y1140460D01*
X378856D01*
X376170Y1143162D01*
X376654Y1221595D01*
X378442Y1223384D01*
X378442Y1223384D01*
X379060Y1224308D01*
X379277Y1225398D01*
Y1273484D01*
X383087Y1275062D01*
X385505Y1272644D01*
X386672Y1272160D01*
X420279D01*
X425154Y1267285D01*
Y1254954D01*
X425396Y1254371D01*
X425638Y1253788D01*
X425638Y1253787D01*
X427102Y1252324D01*
X428268Y1251841D01*
X428268Y1251840D01*
X428268Y1251840D01*
X447632Y1251840D01*
X456582D01*
X457748Y1252324D01*
X460488Y1253809D01*
X462177Y1253425D01*
X463445Y1253172D01*
X470191D01*
X471780Y1252743D01*
X473711Y1249825D01*
X473711Y1217422D01*
X474195Y1216256D01*
X475361Y1215772D01*
X505460D01*
X506626Y1216256D01*
X507109Y1217422D01*
Y1220090D01*
X605791D01*
Y1214882D01*
X606275Y1213716D01*
X607441Y1213232D01*
X636239Y1213232D01*
X637405Y1213716D01*
X637888Y1214882D01*
X637888Y1220090D01*
X971551Y1220090D01*
X971551Y1205978D01*
X971537Y1205964D01*
X967741Y1204290D01*
X967492Y1204457D01*
X965708Y1204812D01*
X963924Y1204457D01*
X962412Y1203446D01*
X961401Y1201934D01*
X961342Y1201635D01*
X961182Y1201396D01*
X960487Y1201293D01*
X957261Y1201579D01*
X957180Y1201983D01*
X956142Y1203538D01*
X954587Y1204576D01*
X952754Y1204941D01*
X950921Y1204576D01*
X949366Y1203538D01*
X948328Y1201983D01*
X947963Y1200150D01*
Y1198708D01*
X945843D01*
X944575Y1198456D01*
X943501Y1197737D01*
X942783Y1196663D01*
X942530Y1195395D01*
Y1187345D01*
X942783Y1186077D01*
X943501Y1185003D01*
X944575Y1184285D01*
X945843Y1184032D01*
X955093D01*
X956361Y1184285D01*
X957167Y1184823D01*
X957653Y1185003D01*
X961063D01*
X961549Y1184823D01*
X962355Y1184285D01*
X963623Y1184032D01*
X972873D01*
X974141Y1184285D01*
X974905Y1184795D01*
X975830Y1184696D01*
X976095Y1184618D01*
X978761Y1183452D01*
X978927Y1182618D01*
X979938Y1181106D01*
X981450Y1180095D01*
X983234Y1179740D01*
X985018Y1180095D01*
X986530Y1181106D01*
X987541Y1182618D01*
X987829Y1184067D01*
X988434Y1184569D01*
X988765Y1184753D01*
X991492Y1185853D01*
X991632Y1185759D01*
X992783Y1185530D01*
X1002633D01*
X1003784Y1185759D01*
X1004759Y1186411D01*
X1005411Y1187386D01*
X1005640Y1188537D01*
Y1195187D01*
X1005411Y1196338D01*
X1004759Y1197313D01*
X1004069Y1197774D01*
X1003429Y1200430D01*
X1003330Y1201921D01*
X1003648Y1202690D01*
X1003648Y1202690D01*
X1003648Y1204167D01*
X1003648Y1220090D01*
X1103758D01*
X1103758Y1205738D01*
X1104242Y1204572D01*
X1105408Y1204088D01*
X1111075D01*
X1118744Y1196419D01*
X1118744Y1188720D01*
X1118745Y1188720D01*
X1119228Y1187554D01*
X1120394Y1187070D01*
X1120394Y1187070D01*
X1121871Y1187070D01*
X1154642D01*
X1156321Y1187070D01*
X1156321Y1187070D01*
X1156612Y1187191D01*
X1156928Y1187186D01*
X1157173Y1187423D01*
X1157487Y1187553D01*
X1157608Y1187845D01*
X1157835Y1188065D01*
X1157840Y1188406D01*
X1157970Y1188720D01*
X1157849Y1189012D01*
X1157854Y1189328D01*
X1157854Y1189328D01*
X1157236Y1190889D01*
X1147698Y1214956D01*
X1147698Y1237710D01*
X1152746D01*
X1153912Y1238194D01*
X1172614Y1256896D01*
X1173098Y1258062D01*
Y1267355D01*
X1173352Y1267968D01*
Y1405128D01*
X1172868Y1406294D01*
X1171702Y1406778D01*
X1148295Y1406778D01*
X1146616Y1406778D01*
X1146616Y1406777D01*
X1146613Y1406776D01*
X1146610Y1406778D01*
X1146610Y1406777D01*
X1146027Y1406534D01*
X1145450Y1406295D01*
X1145448Y1406291D01*
X1145445Y1406290D01*
X1145213Y1405724D01*
X1144967Y1405128D01*
X1144968Y1405125D01*
X1144967Y1405122D01*
X1144967Y1405122D01*
X1144972Y1403649D01*
X1144972Y1403649D01*
X1144973Y1403449D01*
X1145051Y1382454D01*
X1141251Y1379687D01*
X1132515D01*
X1131520Y1379687D01*
X1128472Y1382735D01*
X1128232Y1382355D01*
X1125039Y1379600D01*
X1120400D01*
Y1392030D01*
X1119916Y1393197D01*
X1044986Y1468127D01*
X1043820Y1468610D01*
X1018102D01*
X1017150Y1468610D01*
X1014346Y1470867D01*
X1014293Y1470910D01*
X1013790Y1470910D01*
X1001855D01*
X998220Y1470910D01*
X998220Y1473200D01*
X997757Y1470623D01*
X997783Y1470422D01*
X995733Y1468131D01*
X994978Y1467568D01*
X994410Y1467568D01*
X968308D01*
X967142Y1467084D01*
X892212Y1392154D01*
X891728Y1390988D01*
Y1379092D01*
X883496D01*
X882330Y1378608D01*
X878520Y1374798D01*
X878036Y1373632D01*
Y1282192D01*
X878520Y1281026D01*
X883599Y1275946D01*
X884766Y1275462D01*
X918373D01*
X923248Y1270587D01*
Y1258256D01*
X923490Y1257673D01*
X923732Y1257090D01*
X923732Y1257089D01*
X925196Y1255626D01*
X926362Y1255143D01*
X926362Y1255142D01*
X926362Y1255142D01*
X945726Y1255142D01*
X954676D01*
X955633Y1255539D01*
X955842Y1255626D01*
X955843Y1255626D01*
X958292Y1256343D01*
X960525Y1255965D01*
X961054Y1255859D01*
X961793Y1255712D01*
X969382D01*
X970611Y1254141D01*
X971551Y1252220D01*
X971551Y1250743D01*
Y1246758D01*
X674948Y1246758D01*
X673490Y1250277D01*
X674520Y1251308D01*
X675004Y1252474D01*
Y1261767D01*
X675258Y1262380D01*
Y1399540D01*
X674774Y1400706D01*
X673608Y1401190D01*
X650201D01*
X648522Y1401190D01*
X648522Y1401190D01*
X648519Y1401188D01*
X648516Y1401190D01*
X648516Y1401190D01*
X647933Y1400946D01*
X647356Y1400706D01*
X647355Y1400703D01*
X647352Y1400702D01*
X647265Y1400491D01*
X645401Y1399616D01*
X644667Y1399401D01*
X643063Y1399304D01*
X641371Y1400996D01*
X617611D01*
Y1400996D01*
X614535Y1399722D01*
X548162Y1466095D01*
X546996Y1466578D01*
X523420D01*
X519658Y1469493D01*
Y1469493D01*
X498672D01*
X497840Y1468661D01*
X495868Y1465536D01*
X469198D01*
X468032Y1465052D01*
X393102Y1390122D01*
X392618Y1388956D01*
Y1387841D01*
X389089Y1386890D01*
X388808Y1386890D01*
X380375D01*
X377689Y1389592D01*
X378313Y1490726D01*
X1205133D01*
X1207017Y1487016D01*
D02*
G37*
G36*
X308555Y1166774D02*
Y1064006D01*
X308555Y1064006D01*
X308772Y1062916D01*
X309390Y1061992D01*
X325646Y1045736D01*
X325646Y1045736D01*
X326570Y1045118D01*
X327660Y1044901D01*
X327660Y1044901D01*
X490564D01*
X490982Y1044483D01*
Y1041093D01*
X490424Y1040337D01*
X487565Y1038254D01*
X487172Y1038254D01*
X480915D01*
X479765Y1038025D01*
X478789Y1037373D01*
X478137Y1036398D01*
X477908Y1035247D01*
Y1025397D01*
X478137Y1024246D01*
X478789Y1023271D01*
X479157Y1020168D01*
X478802Y1018384D01*
X479157Y1016600D01*
X480168Y1015088D01*
X481680Y1014077D01*
X483464Y1013723D01*
X485248Y1014077D01*
X486760Y1015088D01*
X487172Y1015704D01*
X490982Y1014701D01*
Y997950D01*
X490233Y997164D01*
X487172Y995377D01*
X487164Y995379D01*
X480514D01*
X479363Y995150D01*
X478388Y994498D01*
X477736Y993523D01*
X477507Y992372D01*
Y984512D01*
X477011Y983138D01*
X473914Y981823D01*
X470496Y983434D01*
X470171Y984619D01*
Y992372D01*
X469942Y993523D01*
X469290Y994498D01*
X468315Y995150D01*
X467866Y995239D01*
Y1022450D01*
X468716Y1022619D01*
X469691Y1023271D01*
X470343Y1024246D01*
X470572Y1025397D01*
Y1035247D01*
X470343Y1036398D01*
X469691Y1037373D01*
X468716Y1038025D01*
X467565Y1038254D01*
X460915D01*
X459765Y1038025D01*
X459423Y1037797D01*
X458186Y1037504D01*
X454910Y1038215D01*
X454756Y1038444D01*
X453244Y1039455D01*
X451460Y1039810D01*
X449676Y1039455D01*
X448657Y1038774D01*
X419476D01*
X419476Y1038774D01*
X418089Y1038498D01*
X416912Y1037712D01*
X416912Y1037712D01*
X414225Y1035025D01*
X406740D01*
X404975Y1034673D01*
X404023Y1034038D01*
X401512D01*
X401512Y1034038D01*
X400125Y1033762D01*
X398948Y1032976D01*
X398948Y1032976D01*
X387399Y1021426D01*
X386794Y1021831D01*
X385010Y1022186D01*
X383226Y1021831D01*
X382252Y1021180D01*
X379514Y1020911D01*
X378038Y1020972D01*
X377511Y1021301D01*
X376505Y1021973D01*
X375770Y1022120D01*
Y1026004D01*
X376505Y1026151D01*
X378002Y1027150D01*
X379002Y1028647D01*
X379353Y1030412D01*
X379002Y1032177D01*
X378002Y1033674D01*
X376505Y1034673D01*
X374740Y1035025D01*
X358740D01*
X356975Y1034673D01*
X356023Y1034038D01*
X348158D01*
Y1036263D01*
X347929Y1037414D01*
X347277Y1038389D01*
X346302Y1039041D01*
X345151Y1039270D01*
X338501D01*
X337350Y1039041D01*
X336375Y1038389D01*
X335723Y1037414D01*
X335494Y1036263D01*
Y1026413D01*
X335723Y1025262D01*
X336375Y1024287D01*
X337350Y1023635D01*
X338501Y1023406D01*
X345151D01*
X346302Y1023635D01*
X347277Y1024287D01*
X347929Y1025262D01*
X348158Y1026413D01*
Y1026786D01*
X356023D01*
X356975Y1026151D01*
X357710Y1026004D01*
Y1022120D01*
X356975Y1021973D01*
X355478Y1020974D01*
X354478Y1019477D01*
X354127Y1017712D01*
X353311Y1016718D01*
X342892D01*
X342892Y1016718D01*
X341505Y1016442D01*
X340328Y1015656D01*
X340328Y1015656D01*
X326468Y1001796D01*
X325682Y1000619D01*
X325406Y999232D01*
X325406Y999232D01*
Y979878D01*
X325406Y979878D01*
X325682Y978491D01*
X326468Y977315D01*
X339094Y964689D01*
X336810Y961633D01*
X335026Y961988D01*
X333242Y961633D01*
X332223Y960952D01*
X302628D01*
X302508Y961130D01*
X300996Y962141D01*
X299212Y962496D01*
X297428Y962141D01*
X295916Y961130D01*
X294905Y959618D01*
X294550Y957834D01*
X294905Y956050D01*
X295916Y954538D01*
X297428Y953527D01*
X299212Y953172D01*
X300996Y953527D01*
X301255Y953700D01*
X319820D01*
X320040Y949960D01*
X320040Y949890D01*
Y896620D01*
X327660Y889000D01*
X414020D01*
Y893346D01*
X505562D01*
X505562Y893346D01*
X506950Y893622D01*
X508126Y894408D01*
X510690Y896972D01*
X525484D01*
X547103Y875353D01*
X547104Y875353D01*
X548280Y874567D01*
X549667Y874291D01*
X590358D01*
X590898Y872986D01*
X592466Y870944D01*
X594508Y869376D01*
X596887Y868391D01*
X599440Y868055D01*
X601993Y868391D01*
X604372Y869376D01*
X606116Y870715D01*
X607408Y870468D01*
X609926Y869262D01*
Y834427D01*
X580480Y804981D01*
X322032D01*
X300006Y827006D01*
X299082Y827624D01*
X297992Y827841D01*
X297992Y827841D01*
X282154D01*
X276661Y833334D01*
Y1039712D01*
X298940Y1061992D01*
X298940Y1061992D01*
X299558Y1062916D01*
X299775Y1064006D01*
Y1085088D01*
X299558Y1086178D01*
X298940Y1087102D01*
X298940Y1087102D01*
X291448Y1094595D01*
Y1107574D01*
X270400D01*
Y1089526D01*
X288459D01*
X292393Y1085593D01*
X290423Y1082174D01*
X270400D01*
Y1064126D01*
X271021D01*
X272479Y1060606D01*
X266247Y1054373D01*
X262437Y1055952D01*
Y1152234D01*
X266590Y1156387D01*
X270400Y1154809D01*
Y1140326D01*
X291448D01*
Y1158374D01*
X273965D01*
X272387Y1162184D01*
X275929Y1165726D01*
X291448D01*
Y1178493D01*
X295258Y1180071D01*
X308555Y1166774D01*
D02*
G37*
G36*
X363982Y1203945D02*
Y1138682D01*
X369824Y1132840D01*
X483651D01*
X502684Y1113808D01*
X503608Y1113190D01*
X504698Y1112973D01*
X504698Y1112973D01*
X505929D01*
X506228Y1112526D01*
X507740Y1111515D01*
X509524Y1111160D01*
X511308Y1111515D01*
X512820Y1112526D01*
X513831Y1114038D01*
X514186Y1115822D01*
X513831Y1117606D01*
X512820Y1119118D01*
X511308Y1120129D01*
X509524Y1120484D01*
X507740Y1120129D01*
X506228Y1119118D01*
X503212Y1121337D01*
X495229Y1129320D01*
X496687Y1132840D01*
X542937D01*
X543300Y1132597D01*
X545084Y1132242D01*
X546868Y1132597D01*
X547231Y1132840D01*
X586319D01*
X588772Y1130046D01*
Y1088699D01*
X511658D01*
X511658Y1088699D01*
X510568Y1088482D01*
X509644Y1087864D01*
X507375Y1085596D01*
X490982D01*
Y1071935D01*
X337678D01*
X335589Y1074024D01*
Y1180530D01*
X360462Y1205403D01*
X363982Y1203945D01*
D02*
G37*
G36*
X1004824Y1108710D02*
Y1041654D01*
X1002136Y1039368D01*
X997491Y1039147D01*
X971275Y1065362D01*
X924828Y1065362D01*
X922288Y1067902D01*
X922288Y1109232D01*
X926678Y1113622D01*
X999912Y1113622D01*
X1004824Y1108710D01*
D02*
G37*
G36*
X449676Y1030841D02*
X451460Y1030487D01*
X453244Y1030841D01*
X454098Y1031412D01*
X456516Y1030664D01*
X457908Y1029725D01*
Y1025397D01*
X458137Y1024246D01*
X458789Y1023271D01*
X459765Y1022619D01*
X460614Y1022450D01*
Y1000777D01*
X457094Y999319D01*
X450562Y1005852D01*
X449385Y1006638D01*
X449238Y1006667D01*
Y1007313D01*
X448986Y1008581D01*
X448268Y1009656D01*
X447193Y1010374D01*
X445925Y1010626D01*
X436675D01*
X435407Y1010374D01*
X434333Y1009656D01*
X433615Y1008581D01*
X433363Y1007313D01*
Y1006914D01*
X426910D01*
X426002Y1008274D01*
X424505Y1009274D01*
X422740Y1009625D01*
X406740D01*
X404975Y1009274D01*
X403478Y1008274D01*
X402478Y1006777D01*
X402127Y1005012D01*
X402478Y1003247D01*
X403478Y1001750D01*
X403837Y997502D01*
X403773Y997320D01*
X402224Y995938D01*
X398770D01*
X389204Y1005504D01*
X388965Y1006706D01*
X387954Y1008218D01*
X387687Y1012539D01*
X387715Y1012612D01*
X388623Y1013897D01*
X388624Y1013898D01*
X390011Y1014174D01*
X391188Y1014960D01*
X403014Y1026786D01*
X404023D01*
X404975Y1026151D01*
X406740Y1025799D01*
X422740D01*
X424505Y1026151D01*
X426002Y1027150D01*
X427001Y1028647D01*
X427353Y1030412D01*
X428264Y1031522D01*
X448657D01*
X449676Y1030841D01*
D02*
G37*
G36*
X968008Y1057742D02*
X970548Y1055202D01*
Y1017102D01*
X968008Y1014562D01*
X924828D01*
X922288Y1017102D01*
Y1055202D01*
X924828Y1057742D01*
X968008Y1057742D01*
D02*
G37*
G36*
X576580Y1066800D02*
Y967740D01*
X569015Y960175D01*
X520645D01*
X513080Y967740D01*
Y1064260D01*
X523240Y1074420D01*
X568960D01*
X576580Y1066800D01*
D02*
G37*
G36*
X597099Y952366D02*
Y937514D01*
X597099Y937514D01*
X597316Y936424D01*
X597934Y935500D01*
X609926Y923507D01*
Y916614D01*
X609219Y913097D01*
X606116Y913097D01*
X589661D01*
Y893539D01*
X606116D01*
X609219Y893539D01*
X609926Y890022D01*
Y886574D01*
X607408Y885368D01*
X606116Y885121D01*
X604372Y886460D01*
X601993Y887445D01*
X599440Y887781D01*
X596887Y887445D01*
X594508Y886460D01*
X592466Y884893D01*
X590898Y882850D01*
X590357Y881543D01*
X551169D01*
X539259Y893452D01*
X540717Y896972D01*
X545034D01*
X550321Y902259D01*
Y907950D01*
X550683Y908823D01*
X550997Y911210D01*
X550683Y913597D01*
X550321Y914470D01*
Y938119D01*
X550597Y938784D01*
X588772D01*
Y949427D01*
X593289Y953944D01*
X597099Y952366D01*
D02*
G37*
G36*
X684536Y979430D02*
X686048Y978419D01*
X687832Y978064D01*
X689616Y978419D01*
X691128Y979430D01*
X692437Y979223D01*
X695119Y978544D01*
X695564Y977878D01*
X696479Y976382D01*
X696124Y974598D01*
X696479Y972814D01*
X697490Y971302D01*
X699002Y970291D01*
X700786Y969936D01*
X702570Y970291D01*
X704082Y971302D01*
X705093Y972814D01*
X705448Y974598D01*
X705219Y975747D01*
X706901Y978009D01*
X707955Y978956D01*
X734368D01*
Y968368D01*
X734684Y966782D01*
X735582Y965438D01*
X811244Y889776D01*
X811126Y889658D01*
X810642Y888492D01*
Y846523D01*
X799986D01*
X799986Y846523D01*
X798896Y846306D01*
X797972Y845688D01*
X797972Y845688D01*
X749064Y796780D01*
X748446Y795856D01*
X748229Y794766D01*
X745523Y792480D01*
X683260D01*
Y762000D01*
X679660Y761492D01*
X284480D01*
X256032Y789940D01*
Y791464D01*
X256130Y820303D01*
X259946Y821876D01*
X273068Y808754D01*
X273068Y808754D01*
X273992Y808136D01*
X275082Y807919D01*
X290920D01*
X312946Y785894D01*
X312946Y785894D01*
X313870Y785276D01*
X314960Y785059D01*
X587756D01*
X587756Y785059D01*
X588846Y785276D01*
X589770Y785894D01*
X617202Y813326D01*
X617202Y813326D01*
X617614Y813941D01*
X629013Y825341D01*
X629013Y825341D01*
X629631Y826265D01*
X629848Y827355D01*
X629721Y827994D01*
Y949542D01*
X660056Y979877D01*
X684237D01*
X684536Y979430D01*
D02*
G37*
G36*
X836422Y888492D02*
Y837692D01*
X835152Y836422D01*
X813562D01*
X812292Y837692D01*
Y888492D01*
X813562Y889762D01*
X835152Y889762D01*
X836422Y888492D01*
D02*
G37*
G36*
X1232844Y838634D02*
X1245108Y825915D01*
Y805942D01*
X1220396Y805942D01*
X1189824Y805942D01*
X1154176Y761492D01*
X925068D01*
X920242Y766318D01*
X817880D01*
Y778644D01*
X818134Y778898D01*
X812546Y784486D01*
Y786892D01*
Y800100D01*
X812876Y803402D01*
X827786D01*
Y792226D01*
X836930Y783082D01*
X913130D01*
X917194Y787146D01*
X919988D01*
X919988Y805942D01*
X927608Y812292D01*
X1161362Y812292D01*
X1187704Y838634D01*
X1232844Y838634D01*
D02*
G37*
G36*
X1211526Y803655D02*
X1210486Y798779D01*
X1207209Y796089D01*
X1204519Y792812D01*
X1202520Y789073D01*
X1201289Y785015D01*
X1200874Y780796D01*
X1201289Y776577D01*
X1202520Y772519D01*
X1204519Y768780D01*
X1206956Y765810D01*
X1206738Y764555D01*
X1205471Y762000D01*
X1161101D01*
X1159453Y765435D01*
X1190616Y804292D01*
X1211043Y804292D01*
X1211526Y803655D01*
D02*
G37*
%LPC*%
G36*
X289694Y1305764D02*
X271646D01*
Y1284716D01*
X289694D01*
Y1305764D01*
D02*
G37*
G36*
X340494D02*
X322446D01*
Y1284716D01*
X326679D01*
Y1279822D01*
X326545D01*
X325394Y1279593D01*
X324419Y1278941D01*
X323767Y1277966D01*
X323538Y1276815D01*
Y1270165D01*
X323767Y1269014D01*
X324419Y1268039D01*
X325394Y1267387D01*
X326545Y1267158D01*
X336395D01*
X337546Y1267387D01*
X338521Y1268039D01*
X339173Y1269014D01*
X339402Y1270165D01*
Y1276815D01*
X339173Y1277966D01*
X338521Y1278941D01*
X337546Y1279593D01*
X336395Y1279822D01*
X336261D01*
Y1284716D01*
X340494D01*
Y1305764D01*
D02*
G37*
G36*
X315094D02*
X297046D01*
Y1284716D01*
X301279D01*
Y1279822D01*
X301145D01*
X299994Y1279593D01*
X299019Y1278941D01*
X298367Y1277966D01*
X298138Y1276815D01*
Y1270165D01*
X298367Y1269014D01*
X299019Y1268039D01*
X299994Y1267387D01*
X301145Y1267158D01*
X310995D01*
X312146Y1267387D01*
X313121Y1268039D01*
X313773Y1269014D01*
X314002Y1270165D01*
Y1276815D01*
X313773Y1277966D01*
X313121Y1278941D01*
X312146Y1279593D01*
X310995Y1279822D01*
X310861D01*
Y1284716D01*
X315094D01*
Y1305764D01*
D02*
G37*
G36*
X838334Y1406254D02*
X820286D01*
Y1385206D01*
X824519D01*
Y1380312D01*
X824385D01*
X823234Y1380083D01*
X822259Y1379431D01*
X821607Y1378456D01*
X821378Y1377305D01*
Y1370655D01*
X821471Y1370186D01*
X819892Y1368026D01*
X818699Y1366999D01*
X814521D01*
X813747Y1367665D01*
X811842Y1370655D01*
X811842Y1370809D01*
Y1377305D01*
X811613Y1378456D01*
X810961Y1379431D01*
X809986Y1380083D01*
X808835Y1380312D01*
X808701D01*
Y1385206D01*
X812934D01*
Y1406254D01*
X794886D01*
Y1385206D01*
X794904D01*
X796089Y1381396D01*
X795309Y1380859D01*
X794280Y1381223D01*
X793910Y1381480D01*
X793647Y1381482D01*
X787826Y1381517D01*
X787534Y1385206D01*
X787534Y1385329D01*
Y1406254D01*
X769486D01*
Y1385439D01*
X768917Y1381632D01*
X765930Y1381650D01*
Y1360598D01*
X765930Y1360598D01*
X765930Y1357510D01*
X765930Y1357510D01*
X765998Y1356816D01*
X766386Y1352837D01*
X743308Y1329759D01*
X743204Y1329780D01*
X741420Y1329425D01*
X739908Y1328414D01*
X738897Y1326902D01*
X738542Y1325118D01*
X738897Y1323334D01*
X739908Y1321822D01*
X741420Y1320811D01*
X743204Y1320456D01*
X744988Y1320811D01*
X746357Y1321726D01*
X746560Y1321821D01*
X747100Y1321811D01*
X750643Y1321732D01*
X750768Y1321668D01*
X752164Y1320735D01*
X753948Y1320381D01*
X753948Y1320381D01*
X754108Y1320412D01*
X755732Y1320735D01*
X757244Y1321746D01*
X758255Y1323258D01*
X758609Y1325042D01*
X758294Y1326629D01*
X767236Y1335571D01*
X795978D01*
Y1335095D01*
X796207Y1333944D01*
X796859Y1332969D01*
X797834Y1332317D01*
X798985Y1332088D01*
X808835D01*
X809986Y1332317D01*
X810961Y1332969D01*
X811613Y1333944D01*
X811842Y1335095D01*
Y1341745D01*
X811613Y1342896D01*
X810961Y1343871D01*
X810597Y1344114D01*
X810258Y1346200D01*
X810597Y1348286D01*
X810961Y1348529D01*
X811613Y1349504D01*
X811842Y1350655D01*
Y1357305D01*
X811805Y1357491D01*
X813430Y1360384D01*
X814194Y1361195D01*
X818032Y1361230D01*
X821474Y1357787D01*
X821378Y1357305D01*
Y1350655D01*
X821607Y1349504D01*
X822259Y1348529D01*
X822623Y1348286D01*
X822962Y1346200D01*
X822623Y1344114D01*
X822259Y1343871D01*
X821607Y1342896D01*
X821378Y1341745D01*
Y1335095D01*
X821607Y1333944D01*
X822259Y1332969D01*
X823234Y1332317D01*
X824385Y1332088D01*
X834235D01*
X835386Y1332317D01*
X836361Y1332969D01*
X837013Y1333944D01*
X837242Y1335095D01*
Y1341745D01*
X837013Y1342896D01*
X836361Y1343871D01*
X835997Y1344114D01*
X835658Y1346200D01*
X835997Y1348286D01*
X836361Y1348529D01*
X837013Y1349504D01*
X837242Y1350655D01*
Y1357305D01*
X837013Y1358456D01*
X836361Y1359431D01*
X835386Y1360083D01*
X834235Y1360312D01*
X827007D01*
X823349Y1363970D01*
X823931Y1366036D01*
X825059Y1367648D01*
X834235D01*
X835386Y1367877D01*
X836361Y1368529D01*
X837013Y1369504D01*
X837242Y1370655D01*
Y1377305D01*
X837013Y1378456D01*
X836361Y1379431D01*
X835386Y1380083D01*
X834235Y1380312D01*
X834101D01*
Y1385206D01*
X838334D01*
Y1406254D01*
D02*
G37*
G36*
Y1298304D02*
X820286D01*
Y1277256D01*
X838334D01*
Y1298304D01*
D02*
G37*
G36*
X812934D02*
X794886D01*
Y1277256D01*
X812934D01*
Y1298304D01*
D02*
G37*
G36*
X787534D02*
X769486D01*
Y1277256D01*
X787534D01*
Y1298304D01*
D02*
G37*
G36*
X598678Y1204050D02*
X596894Y1203695D01*
X595382Y1202684D01*
X594371Y1201172D01*
X594016Y1199388D01*
X593809Y1199207D01*
X590950Y1199751D01*
X589545Y1200478D01*
X588858Y1201506D01*
X587303Y1202544D01*
X585470Y1202909D01*
X583637Y1202544D01*
X582082Y1201506D01*
X581044Y1199951D01*
X580679Y1198118D01*
Y1196168D01*
X578305D01*
X577037Y1195916D01*
X575963Y1195197D01*
X575244Y1194123D01*
X574992Y1192855D01*
Y1184805D01*
X575244Y1183537D01*
X575963Y1182463D01*
X577037Y1181745D01*
X578305Y1181492D01*
X587555D01*
X588823Y1181745D01*
X589629Y1182283D01*
X590115Y1182463D01*
X593525D01*
X594011Y1182283D01*
X594817Y1181745D01*
X596085Y1181492D01*
X605335D01*
X606603Y1181745D01*
X607677Y1182463D01*
X608396Y1183537D01*
X608648Y1184805D01*
Y1192855D01*
X608396Y1194123D01*
X607677Y1195197D01*
X606603Y1195916D01*
X605030Y1196660D01*
X603340Y1199388D01*
X602985Y1201172D01*
X601974Y1202684D01*
X600462Y1203695D01*
X598678Y1204050D01*
D02*
G37*
G36*
X1083818Y1205449D02*
X1081985Y1205084D01*
X1080430Y1204046D01*
X1079392Y1202491D01*
X1079027Y1200658D01*
Y1198708D01*
X1076653D01*
X1075385Y1198456D01*
X1074311Y1197737D01*
X1073593Y1196663D01*
X1073340Y1195395D01*
Y1187345D01*
X1073593Y1186077D01*
X1074311Y1185003D01*
X1075385Y1184285D01*
X1076653Y1184032D01*
X1085903D01*
X1087171Y1184285D01*
X1087977Y1184823D01*
X1088463Y1185003D01*
X1091873D01*
X1092359Y1184823D01*
X1093165Y1184285D01*
X1094433Y1184032D01*
X1103683D01*
X1104951Y1184285D01*
X1106025Y1185003D01*
X1106743Y1186077D01*
X1106996Y1187345D01*
Y1195395D01*
X1106743Y1196663D01*
X1106025Y1197737D01*
X1104951Y1198456D01*
X1103683Y1198708D01*
X1101180Y1200658D01*
X1100825Y1202442D01*
X1099814Y1203954D01*
X1098302Y1204965D01*
X1096518Y1205320D01*
X1094734Y1204965D01*
X1093222Y1203954D01*
X1092211Y1202442D01*
X1092175Y1202260D01*
X1088290D01*
X1088244Y1202491D01*
X1087206Y1204046D01*
X1085651Y1205084D01*
X1083818Y1205449D01*
D02*
G37*
G36*
X454406Y1202401D02*
X452573Y1202036D01*
X451018Y1200998D01*
X449980Y1199443D01*
X449615Y1197610D01*
Y1196168D01*
X447495D01*
X446227Y1195916D01*
X445153Y1195197D01*
X444435Y1194123D01*
X444182Y1192855D01*
Y1184805D01*
X444435Y1183537D01*
X445153Y1182463D01*
X446227Y1181745D01*
X447495Y1181492D01*
X456745D01*
X458013Y1181745D01*
X458819Y1182283D01*
X459305Y1182463D01*
X462715D01*
X463201Y1182283D01*
X464007Y1181745D01*
X465275Y1181492D01*
X474525D01*
X475793Y1181745D01*
X476867Y1182463D01*
X477585Y1183537D01*
X477838Y1184805D01*
Y1184817D01*
X480111Y1185872D01*
X481648Y1186231D01*
X482848Y1185429D01*
X484632Y1185074D01*
X486416Y1185429D01*
X490280Y1184886D01*
X491255Y1184234D01*
X492406Y1184005D01*
X502256D01*
X503407Y1184234D01*
X504382Y1184886D01*
X505034Y1185862D01*
X505263Y1187012D01*
Y1193662D01*
X505034Y1194813D01*
X504382Y1195788D01*
X503407Y1196440D01*
X502256Y1196669D01*
X492406D01*
X491255Y1196440D01*
X490280Y1195788D01*
X489915Y1195241D01*
X486416Y1194043D01*
X484632Y1194398D01*
X482848Y1194043D01*
X481523Y1193157D01*
X481390Y1193146D01*
X480163Y1193373D01*
X477585Y1194123D01*
X476867Y1195197D01*
X475793Y1195916D01*
X474525Y1196168D01*
X472022Y1197610D01*
X471667Y1199394D01*
X470656Y1200906D01*
X469144Y1201917D01*
X467360Y1202272D01*
X465576Y1201917D01*
X464064Y1200906D01*
X463053Y1199394D01*
X462890Y1198573D01*
X459005D01*
X458832Y1199443D01*
X457794Y1200998D01*
X456239Y1202036D01*
X454406Y1202401D01*
D02*
G37*
G36*
X1002633Y1178194D02*
X992783D01*
X991632Y1177965D01*
X990657Y1177313D01*
X990005Y1176338D01*
X989776Y1175187D01*
Y1168537D01*
X988875Y1167439D01*
X934546D01*
X934455Y1167898D01*
X933444Y1169410D01*
X931932Y1170421D01*
X930148Y1170776D01*
X928364Y1170421D01*
X926852Y1169410D01*
X925841Y1167898D01*
X925486Y1166114D01*
X925841Y1164330D01*
X926852Y1162818D01*
X928364Y1161807D01*
X930148Y1161452D01*
X931636Y1161748D01*
X931672Y1161741D01*
X931672Y1161741D01*
X999918D01*
X1000009Y1161282D01*
X1001020Y1159770D01*
X1002532Y1158759D01*
X1004316Y1158404D01*
X1004844Y1158509D01*
X1005858Y1157496D01*
X1005858Y1157496D01*
X1006782Y1156878D01*
X1007872Y1156661D01*
X1007872Y1156661D01*
X1054608D01*
X1054608Y1156661D01*
X1055698Y1156878D01*
X1056622Y1157496D01*
X1060430Y1161303D01*
X1060958Y1161198D01*
X1062742Y1161553D01*
X1064254Y1162564D01*
X1065265Y1164076D01*
X1065620Y1165860D01*
X1065265Y1167644D01*
X1064254Y1169156D01*
X1062742Y1170167D01*
X1060958Y1170522D01*
X1059174Y1170167D01*
X1057662Y1169156D01*
X1056651Y1167644D01*
X1056296Y1165860D01*
X1056401Y1165332D01*
X1053428Y1162359D01*
X1012707D01*
X1008978Y1163066D01*
X1008623Y1164850D01*
X1007612Y1166362D01*
X1006390Y1167179D01*
X1006330Y1167268D01*
X1006330Y1167268D01*
X1005544Y1168055D01*
X1005640Y1168537D01*
Y1175187D01*
X1005411Y1176338D01*
X1004759Y1177313D01*
X1003784Y1177965D01*
X1002633Y1178194D01*
D02*
G37*
G36*
X391160Y1179522D02*
X388939Y1179230D01*
X386869Y1178373D01*
X385091Y1177009D01*
X383727Y1175231D01*
X382870Y1173161D01*
X382578Y1170940D01*
X382870Y1168719D01*
X383727Y1166649D01*
X385091Y1164871D01*
X386869Y1163507D01*
X388939Y1162650D01*
X391160Y1162358D01*
X393381Y1162650D01*
X395451Y1163507D01*
X397229Y1164871D01*
X398593Y1166649D01*
X399450Y1168719D01*
X399742Y1170940D01*
X399450Y1173161D01*
X398593Y1175231D01*
X397229Y1177009D01*
X395451Y1178373D01*
X393381Y1179230D01*
X391160Y1179522D01*
D02*
G37*
G36*
X502256Y1176669D02*
X492406D01*
X491255Y1176440D01*
X490280Y1175788D01*
X489628Y1174813D01*
X489399Y1173662D01*
Y1167012D01*
X489628Y1165861D01*
X490280Y1164886D01*
X490787Y1164547D01*
X491950Y1162980D01*
X492684Y1161655D01*
X492857Y1160195D01*
X492670Y1159256D01*
X493025Y1157472D01*
X494036Y1155960D01*
X495548Y1154949D01*
X497332Y1154594D01*
X499116Y1154949D01*
X500628Y1155960D01*
X501639Y1157472D01*
X501994Y1159256D01*
X501807Y1160195D01*
X501979Y1161654D01*
X502707Y1162970D01*
X503877Y1164548D01*
X504382Y1164886D01*
X505034Y1165861D01*
X505263Y1167012D01*
Y1173662D01*
X505034Y1174813D01*
X504382Y1175788D01*
X503407Y1176440D01*
X502256Y1176669D01*
D02*
G37*
G36*
X1117068Y1117152D02*
X1020040D01*
Y1115272D01*
X1016268D01*
X1015102Y1114788D01*
X1014618Y1113622D01*
Y1005672D01*
X1015102Y1004506D01*
X1016268Y1004022D01*
X1111518D01*
X1112684Y1004506D01*
X1114079Y1005900D01*
X1117068D01*
Y1008889D01*
X1119034Y1010856D01*
X1119518Y1012022D01*
Y1035469D01*
X1121091Y1037042D01*
X1148348D01*
X1149514Y1037526D01*
X1149998Y1038692D01*
Y1043358D01*
X1152412D01*
Y1071806D01*
X1149998D01*
Y1113622D01*
X1149514Y1114788D01*
X1148348Y1115272D01*
X1117068D01*
Y1117152D01*
D02*
G37*
G36*
X1082308Y936674D02*
X1080524Y936319D01*
X1079012Y935308D01*
X1078001Y933796D01*
X1077646Y932012D01*
X1078001Y930228D01*
X1079012Y928716D01*
X1079952Y928087D01*
Y882714D01*
X1068106Y870868D01*
X1066061D01*
X1065042Y871549D01*
X1063258Y871904D01*
X1061474Y871549D01*
X1059962Y870538D01*
X1058951Y869026D01*
X1058596Y867242D01*
X1058951Y865458D01*
X1059962Y863946D01*
X1061474Y862935D01*
X1063258Y862580D01*
X1065042Y862935D01*
X1066061Y863616D01*
X1069608D01*
X1069608Y863616D01*
X1070995Y863892D01*
X1072172Y864678D01*
X1086142Y878648D01*
X1086142Y878648D01*
X1086928Y879825D01*
X1087204Y881212D01*
Y930742D01*
X1087204Y930742D01*
X1086960Y931965D01*
X1086970Y932012D01*
X1086615Y933796D01*
X1085604Y935308D01*
X1084092Y936319D01*
X1082308Y936674D01*
D02*
G37*
%LPD*%
G36*
X1148348Y1038692D02*
X1120408D01*
X1117868Y1036152D01*
Y1012022D01*
X1111518Y1005672D01*
X1016268D01*
Y1113622D01*
X1148348D01*
Y1038692D01*
D02*
G37*
%LPC*%
G36*
X560874Y865570D02*
X557390Y865227D01*
X554039Y864211D01*
X550951Y862560D01*
X548245Y860339D01*
X546024Y857633D01*
X544374Y854545D01*
X543357Y851194D01*
X543014Y847710D01*
X543357Y844226D01*
X544374Y840875D01*
X546024Y837788D01*
X548245Y835081D01*
X550951Y832860D01*
X554039Y831209D01*
X557390Y830193D01*
X560874Y829850D01*
X564358Y830193D01*
X567709Y831209D01*
X570797Y832860D01*
X573503Y835081D01*
X575724Y837788D01*
X577374Y840875D01*
X578391Y844226D01*
X578734Y847710D01*
X578391Y851194D01*
X577374Y854545D01*
X575724Y857633D01*
X573503Y860339D01*
X570797Y862560D01*
X567709Y864211D01*
X564358Y865227D01*
X560874Y865570D01*
D02*
G37*
G36*
X459274D02*
X455790Y865227D01*
X452439Y864211D01*
X449352Y862560D01*
X446645Y860339D01*
X444424Y857633D01*
X442774Y854545D01*
X441757Y851194D01*
X441414Y847710D01*
X441757Y844226D01*
X442774Y840875D01*
X444424Y837788D01*
X446645Y835081D01*
X449352Y832860D01*
X452439Y831209D01*
X455790Y830193D01*
X459274Y829850D01*
X462758Y830193D01*
X466109Y831209D01*
X469197Y832860D01*
X471903Y835081D01*
X474124Y837788D01*
X475774Y840875D01*
X476791Y844226D01*
X477134Y847710D01*
X476791Y851194D01*
X475774Y854545D01*
X474124Y857633D01*
X471903Y860339D01*
X469197Y862560D01*
X466109Y864211D01*
X462758Y865227D01*
X459274Y865570D01*
D02*
G37*
G36*
X416348Y865332D02*
X412864Y864989D01*
X409513Y863972D01*
X406426Y862322D01*
X403719Y860101D01*
X401498Y857394D01*
X399847Y854307D01*
X398831Y850956D01*
X398488Y847472D01*
X398831Y843988D01*
X399847Y840637D01*
X401498Y837550D01*
X403719Y834843D01*
X406426Y832622D01*
X409513Y830972D01*
X412864Y829955D01*
X416348Y829612D01*
X419832Y829955D01*
X423183Y830972D01*
X426270Y832622D01*
X428977Y834843D01*
X431198Y837550D01*
X432849Y840637D01*
X433865Y843988D01*
X434208Y847472D01*
X433865Y850956D01*
X432849Y854307D01*
X431198Y857394D01*
X428977Y860101D01*
X426270Y862322D01*
X423183Y863972D01*
X419832Y864989D01*
X416348Y865332D01*
D02*
G37*
G36*
X314748D02*
X311264Y864989D01*
X307913Y863972D01*
X304825Y862322D01*
X302119Y860101D01*
X299898Y857394D01*
X298248Y854307D01*
X297231Y850956D01*
X296888Y847472D01*
X297231Y843988D01*
X298248Y840637D01*
X299898Y837550D01*
X302119Y834843D01*
X304825Y832622D01*
X307913Y830972D01*
X311264Y829955D01*
X314748Y829612D01*
X318232Y829955D01*
X321583Y830972D01*
X324670Y832622D01*
X327377Y834843D01*
X329598Y837550D01*
X331249Y840637D01*
X332265Y843988D01*
X332608Y847472D01*
X332265Y850956D01*
X331249Y854307D01*
X329598Y857394D01*
X327377Y860101D01*
X324670Y862322D01*
X321583Y863972D01*
X318232Y864989D01*
X314748Y865332D01*
D02*
G37*
G36*
X762000Y871220D02*
X655320D01*
Y828040D01*
X762000D01*
Y871220D01*
D02*
G37*
%LPD*%
D10*
X604266Y995172D02*
X610254Y1001160D01*
X604266Y991185D02*
Y995172D01*
D12*
X485233Y1190337D02*
X497331D01*
X484632Y1189736D02*
X485233Y1190337D01*
X447040Y934720D02*
X470550Y911210D01*
X371574Y959964D02*
X443078D01*
X463839Y980725D01*
X442976Y959862D02*
X443078Y959964D01*
X447040Y934720D02*
Y955798D01*
X442976Y959862D02*
X447040Y955798D01*
X336144Y982824D02*
X371848Y947120D01*
X359148Y936372D02*
Y949762D01*
X329032Y979878D02*
X359148Y949762D01*
X329032Y979878D02*
Y999232D01*
X336144Y982824D02*
Y996286D01*
X344870Y1005012D01*
X329032Y999232D02*
X342892Y1013092D01*
X362120D01*
X384658Y1004922D02*
X397268Y992312D01*
X362120Y1013092D02*
X366740Y1017712D01*
X358376Y973162D02*
X371574Y959964D01*
X371848Y910972D02*
Y947120D01*
X299720Y957326D02*
X335026D01*
X299212Y957834D02*
X299720Y957326D01*
X470550Y911210D02*
X490974D01*
X598280Y1261110D02*
X603250D01*
X965818Y1263650D02*
X971550D01*
X467470Y1261110D02*
X467971Y1260609D01*
X463839Y980725D02*
Y987447D01*
X464240Y987848D01*
Y1030322D01*
X414740Y1030412D02*
X419476Y1035148D01*
X451460D01*
X483464Y1029546D02*
X484240Y1030322D01*
X483464Y1018384D02*
Y1029546D01*
X483718Y977948D02*
X483839Y978069D01*
Y987447D01*
X414740Y992312D02*
X425970D01*
X430378Y987904D01*
X435458D01*
X414740Y1005012D02*
X416464Y1003288D01*
X441300D01*
X341826Y1031338D02*
X342752Y1030412D01*
X366740D01*
X397268Y992312D02*
X414740D01*
X401512Y1030412D02*
X414740D01*
X388624Y1017524D02*
X401512Y1030412D01*
X385010Y1017524D02*
X388624D01*
X344870Y1005012D02*
X366740D01*
X549667Y877917D02*
X599441D01*
X516374Y911210D02*
X549667Y877917D01*
X371848Y910972D02*
X385848Y896972D01*
X505562D01*
X516374Y907784D01*
Y911210D01*
X1082308Y932012D02*
X1083578Y930742D01*
Y881212D02*
Y930742D01*
X1069608Y867242D02*
X1083578Y881212D01*
X1063258Y867242D02*
X1069608D01*
X441300Y1003288D02*
X447998D01*
X463839Y987447D01*
X565260Y1261110D02*
X580280D01*
Y1279542D01*
X580898Y1280160D01*
X434450Y1261110D02*
X449470D01*
X448674Y1279762D02*
X449470D01*
Y1261110D02*
Y1279762D01*
D13*
X653007Y1032029D02*
X657352Y1027684D01*
X504698Y1115822D02*
X509524D01*
X482346Y1138174D02*
X504698Y1115822D01*
X482346Y1138174D02*
Y1159002D01*
X1004316Y1163066D02*
X1007872Y1159510D01*
X1002792Y1164590D02*
X1004316Y1163066D01*
X1007872Y1159510D02*
X1054608D01*
X931672Y1164590D02*
X1002792D01*
X930148Y1166114D02*
X931672Y1164590D01*
X1054608Y1159510D02*
X1060958Y1165860D01*
X962660Y1131316D02*
X982962Y1151618D01*
X773619Y1131316D02*
X962660D01*
X747522Y1137158D02*
X927354D01*
X604012Y943508D02*
Y991185D01*
X604520Y1005840D02*
Y1007110D01*
X599948Y1001268D02*
X604520Y1005840D01*
X599948Y937514D02*
Y1001268D01*
X624078Y989838D02*
X626364Y987552D01*
X586994Y992378D02*
X589280Y994664D01*
X604012Y943508D02*
X619887Y927633D01*
X599948Y937514D02*
X612775Y924687D01*
X586994Y961898D02*
Y992378D01*
X497332Y1159256D02*
Y1173116D01*
X700786Y974598D02*
Y983100D01*
X658876Y982726D02*
X687832D01*
X626872Y950722D02*
X658876Y982726D01*
X626872Y827482D02*
Y950722D01*
Y827482D02*
X626999Y827355D01*
X615188Y815544D02*
X626999Y827355D01*
X624078Y989838D02*
Y1066800D01*
X965708Y1193910D02*
Y1200150D01*
X1096518Y1193910D02*
X1099058Y1191370D01*
X1096518Y1193910D02*
Y1200658D01*
X469900Y1188830D02*
Y1195070D01*
X467360Y1197610D02*
X469900Y1195070D01*
X600710Y1188830D02*
Y1197356D01*
X598678Y1199388D02*
X600710Y1197356D01*
X582422Y957326D02*
X586994Y961898D01*
X517416Y957326D02*
X582422D01*
X506222Y968520D02*
X517416Y957326D01*
X499110Y965574D02*
X514470Y950214D01*
X499110Y965574D02*
Y1040384D01*
X506222Y968520D02*
Y1043330D01*
X494690Y1054862D02*
X506222Y1043330D01*
X491744Y1047750D02*
X499110Y1040384D01*
X327660Y1047750D02*
X491744D01*
X330606Y1054862D02*
X494690D01*
X318516Y1066952D02*
X330606Y1054862D01*
X311404Y1064006D02*
X327660Y1047750D01*
X311404Y1064006D02*
Y1167954D01*
X318516Y1066952D02*
Y1170900D01*
X291338Y1198078D02*
X318516Y1170900D01*
X292028Y1187330D02*
X311404Y1167954D01*
X278504Y1187330D02*
X292028D01*
X325628Y1069898D02*
Y1184656D01*
Y1069898D02*
X333552Y1061974D01*
X635254Y976884D02*
Y981828D01*
X653288Y1047750D02*
X657098Y1043940D01*
X594106Y958790D02*
Y985266D01*
X585530Y950214D02*
X594106Y958790D01*
X514470Y950214D02*
X585530D01*
X333552Y1061974D02*
X497840D01*
X494894Y1069086D02*
X511658Y1085850D01*
X336498Y1069086D02*
X494894D01*
X332740Y1072844D02*
X336498Y1069086D01*
X332740Y1072844D02*
Y1181710D01*
X376428Y1225398D01*
X653007Y1032029D02*
X653488Y1032510D01*
X619887Y830301D02*
Y927633D01*
X584606Y795020D02*
X619887Y830301D01*
X615188Y815340D02*
Y815544D01*
X587756Y787908D02*
X615188Y815340D01*
X314960Y787908D02*
X587756D01*
X317906Y795020D02*
X584606D01*
X295046Y817880D02*
X317906Y795020D01*
X292100Y810768D02*
X314960Y787908D01*
X275082Y810768D02*
X292100D01*
X278028Y817880D02*
X295046D01*
X266700Y829208D02*
X278028Y817880D01*
X259588Y826262D02*
X275082Y810768D01*
X259588Y826262D02*
Y1153414D01*
X266700Y829208D02*
Y1050798D01*
X280924Y1065022D01*
X273812Y832154D02*
X280974Y824992D01*
X273812Y832154D02*
Y1040892D01*
X296926Y1064006D01*
X612775Y833247D02*
Y924687D01*
X581660Y802132D02*
X612775Y833247D01*
X320852Y802132D02*
X581660D01*
X794004Y1077722D02*
Y1120140D01*
X1004316Y1163066D02*
Y1165254D01*
X997708Y1171862D02*
X1004316Y1165254D01*
X987708Y1193034D02*
X988880Y1191862D01*
X997708D01*
X710438Y1100074D02*
X747522Y1137158D01*
X696722Y1107948D02*
X697992Y1106678D01*
X696722Y1107948D02*
Y1159002D01*
X331470Y1253490D02*
X333690D01*
X750062Y842010D02*
Y858680D01*
X749808Y841756D02*
X750062Y842010D01*
X724662Y842010D02*
Y858426D01*
X724408Y841756D02*
X724662Y842010D01*
X699262D02*
Y858426D01*
X699008Y841756D02*
X699262Y842010D01*
X673608Y841756D02*
Y858426D01*
X673608Y841756D02*
X673608Y841756D01*
X291338Y1198078D02*
Y1242060D01*
X302768Y1253490D01*
X306070D01*
X259588Y1153414D02*
X280924Y1174750D01*
X258572Y1207262D02*
Y1332674D01*
X285118Y1359220D01*
X258572Y1207262D02*
X278504Y1187330D01*
X331470Y1237930D02*
X336362D01*
X342900Y1231392D01*
Y1201928D02*
Y1231392D01*
X325628Y1184656D02*
X342900Y1201928D01*
X331470Y1359220D02*
X341818D01*
X376428Y1324610D01*
Y1225398D02*
Y1324610D01*
X545338Y1136650D02*
Y1161288D01*
X545084Y1136904D02*
X545338Y1136650D01*
X280924Y1065022D02*
Y1073150D01*
Y1098550D02*
X283464D01*
X296926Y1085088D01*
Y1064006D02*
Y1085088D01*
X280974Y824992D02*
X297992D01*
X320852Y802132D01*
X635254Y981828D02*
X641003Y987578D01*
Y1038953D01*
X631444Y1048512D02*
X641003Y1038953D01*
X631444Y1048512D02*
Y1076709D01*
X622303Y1085850D02*
X631444Y1076709D01*
X819140Y1364150D02*
X829310Y1353980D01*
X796291Y1364150D02*
X819140D01*
X795953Y1364488D02*
X796291Y1364150D01*
X782066Y1364488D02*
X795953D01*
X766056Y1338420D02*
X803910D01*
X753948Y1326312D02*
X766056Y1338420D01*
X803148Y1075944D02*
Y1117854D01*
X812292Y1074671D02*
Y1118108D01*
X821436Y1074674D02*
Y1117346D01*
X725043Y1102995D02*
X745298D01*
X751078Y777748D02*
Y794766D01*
X799986Y843674D01*
X823964D01*
X814444Y1001402D02*
X824992D01*
X807466Y1008380D02*
X814444Y1001402D01*
X824992D02*
X853814D01*
X777494Y1043940D02*
X781561D01*
X777494D02*
X777748Y1043686D01*
X853814Y1001402D02*
X868172Y987044D01*
Y985774D02*
Y987044D01*
X717740Y1095693D02*
X725043Y1102995D01*
X717740Y1094994D02*
Y1095693D01*
X511658Y1085850D02*
X622303D01*
X612140Y1078738D02*
X624078Y1066800D01*
X497840Y1061974D02*
X514604Y1078738D01*
X612140D01*
X770034Y773590D02*
X784178D01*
X766920Y793590D02*
X784178D01*
X751078Y777748D02*
X766920Y793590D01*
X963710Y1200150D02*
X965708D01*
X776735Y1032764D02*
X779526D01*
X781561Y1043940D02*
X812292Y1074671D01*
X778510Y1051306D02*
X803148Y1075944D01*
X779526Y1032764D02*
X821436Y1074674D01*
X777748Y1043686D02*
X779526D01*
X648970Y1100328D02*
X655828D01*
X663956Y1092200D01*
X772414Y1056132D02*
X794004Y1077722D01*
X657352Y1027684D02*
X668902D01*
X657098Y1043940D02*
X669156D01*
X968248Y1191370D02*
X976266D01*
X983234Y1184402D01*
X745298Y1102995D02*
X773619Y1131316D01*
X497331Y1173115D02*
X497332Y1173116D01*
X306070Y1358270D02*
Y1359220D01*
X285118D02*
X306070D01*
X742950Y1325372D02*
X782066Y1364488D01*
X742950Y1325372D02*
X743204Y1325118D01*
X753948Y1325042D02*
Y1326312D01*
D19*
X366740Y992312D02*
D03*
Y1005012D02*
D03*
Y1017712D02*
D03*
Y1030412D02*
D03*
X414740Y992312D02*
D03*
Y1005012D02*
D03*
Y1017712D02*
D03*
Y1030412D02*
D03*
D20*
X449470Y1261110D02*
D03*
X467470D02*
D03*
X947818Y1263650D02*
D03*
X965818D02*
D03*
X598280Y1261110D02*
D03*
X580280D02*
D03*
X1096628Y1263650D02*
D03*
X1078628D02*
D03*
X416450Y1261110D02*
D03*
X434450D02*
D03*
X914798Y1263650D02*
D03*
X932798D02*
D03*
X547260Y1261110D02*
D03*
X565260D02*
D03*
X1045608Y1263650D02*
D03*
X1063608D02*
D03*
D28*
X738512Y1022350D02*
D03*
X723512D02*
D03*
X668902Y1027684D02*
D03*
X683902D02*
D03*
X669156Y1043940D02*
D03*
X684156D02*
D03*
X822078Y771398D02*
D03*
X807078D02*
D03*
D29*
X829564Y872744D02*
D03*
X859564D02*
D03*
D32*
X497331Y1190337D02*
D03*
Y1170337D02*
D03*
X997708Y1191862D02*
D03*
Y1171862D02*
D03*
X306070Y1253490D02*
D03*
Y1273490D02*
D03*
Y1359220D02*
D03*
Y1379220D02*
D03*
X803910Y1353980D02*
D03*
Y1373980D02*
D03*
X331470Y1253490D02*
D03*
Y1273490D02*
D03*
Y1359220D02*
D03*
Y1379220D02*
D03*
X829310Y1353980D02*
D03*
Y1373980D02*
D03*
X306070Y1217930D02*
D03*
Y1237930D02*
D03*
Y1323660D02*
D03*
Y1343660D02*
D03*
X803910Y1318420D02*
D03*
Y1338420D02*
D03*
X331470Y1217930D02*
D03*
Y1237930D02*
D03*
Y1323660D02*
D03*
Y1343660D02*
D03*
X829310Y1318420D02*
D03*
Y1338420D02*
D03*
X784178Y773590D02*
D03*
Y793590D02*
D03*
X750062Y878680D02*
D03*
Y858680D02*
D03*
X724662Y878426D02*
D03*
Y858426D02*
D03*
X699262Y878426D02*
D03*
Y858426D02*
D03*
X673608Y878426D02*
D03*
Y858426D02*
D03*
X946418Y1020592D02*
D03*
Y1000592D02*
D03*
D33*
X341826Y1031338D02*
D03*
X321826D02*
D03*
X464240Y1030322D02*
D03*
X484240D02*
D03*
X463839Y987447D02*
D03*
X483839D02*
D03*
D68*
X725805Y1061085D02*
X747368D01*
X738512Y1022350D02*
X751840Y1035678D01*
X675372Y1061720D02*
X694316D01*
X570738Y1035304D02*
X591820D01*
X659331Y1053765D02*
Y1075490D01*
X627380Y1107440D02*
X659331Y1075490D01*
X700786Y983100D02*
X736092D01*
X738512Y985520D01*
Y1022350D01*
X659331Y1053765D02*
X669156Y1043940D01*
X751840Y1035678D02*
Y1055740D01*
X747368Y1060211D02*
X751840Y1055740D01*
X747368Y1060211D02*
Y1061085D01*
X721748Y1057028D02*
X725805Y1061085D01*
X699008Y1057028D02*
X721748D01*
X694316Y1061720D02*
X699008Y1057028D01*
X669156Y1055504D02*
X675372Y1061720D01*
X669156Y1043940D02*
Y1055504D01*
X668902Y1027684D02*
X669156Y1027938D01*
Y1043940D01*
X738512Y968368D02*
Y985520D01*
Y968368D02*
X820420Y886460D01*
D69*
X520700Y1254760D02*
X523380D01*
X1081278Y1191370D02*
X1083818Y1193910D01*
X952754Y1193656D02*
Y1200150D01*
X950468Y1191370D02*
X952754Y1193656D01*
X582930Y1188830D02*
X585470Y1191370D01*
Y1198118D01*
X803910Y1373980D02*
Y1395730D01*
X829310Y1373980D02*
Y1395730D01*
X306070Y1273490D02*
Y1295240D01*
X331470Y1273490D02*
Y1295240D01*
X1083818Y1193910D02*
Y1200658D01*
X1081278Y1173370D02*
X1090930D01*
X331470Y1237930D02*
Y1253490D01*
X306070Y1237930D02*
Y1253490D01*
X454406Y1191116D02*
Y1197610D01*
X452120Y1188830D02*
X454406Y1191116D01*
X331470Y1343660D02*
Y1359220D01*
X306070Y1343660D02*
Y1358270D01*
Y1379220D02*
Y1400970D01*
X331470Y1379220D02*
Y1400970D01*
X803910Y1338420D02*
Y1353980D01*
X829310Y1338420D02*
Y1353980D01*
D70*
X275085Y779503D02*
D03*
X1225000Y1475000D02*
D03*
X275000D02*
D03*
X1222502Y780796D02*
D03*
D71*
X541774Y911210D02*
D03*
X529074Y936610D02*
D03*
X516374Y911210D02*
D03*
X503674Y936610D02*
D03*
X490974Y911210D02*
D03*
X478274Y936610D02*
D03*
X1210018Y1289050D02*
D03*
Y1394460D02*
D03*
X397248Y910972D02*
D03*
X384548Y936372D02*
D03*
X371848Y910972D02*
D03*
X359148Y936372D02*
D03*
X346448Y910972D02*
D03*
X333748Y936372D02*
D03*
X711670Y1286510D02*
D03*
Y1391920D02*
D03*
D72*
X599440Y877918D02*
D03*
X699008Y841756D02*
D03*
X724408D02*
D03*
X673608D02*
D03*
X672592Y777240D02*
D03*
X723392D02*
D03*
X697992D02*
D03*
D73*
X599440Y903318D02*
D03*
D74*
X1160018Y1289050D02*
D03*
Y1394460D02*
D03*
X661670Y1286510D02*
D03*
Y1391920D02*
D03*
D75*
X534162Y1432560D02*
D03*
X483870D02*
D03*
X1032510Y1435100D02*
D03*
X982218D02*
D03*
D76*
X356870Y1295240D02*
D03*
X331470D02*
D03*
X306070D02*
D03*
X280670D02*
D03*
X854710Y1287780D02*
D03*
X829310D02*
D03*
X803910D02*
D03*
X778510D02*
D03*
X356870Y1400970D02*
D03*
X331470D02*
D03*
X306070D02*
D03*
X280670D02*
D03*
X854710Y1395730D02*
D03*
X829310D02*
D03*
X803910D02*
D03*
X778510D02*
D03*
D77*
X1032778Y897032D02*
D03*
D78*
X1138188Y1057582D02*
D03*
Y1007290D02*
D03*
D79*
X749808Y841756D02*
D03*
X748792Y777240D02*
D03*
D80*
X280924Y1098550D02*
D03*
Y1123950D02*
D03*
Y1149350D02*
D03*
Y1174750D02*
D03*
Y1073150D02*
D03*
D81*
X307340Y1010920D02*
D03*
Y1003300D02*
D03*
Y1018540D02*
D03*
Y1026160D02*
D03*
X299720Y1003300D02*
D03*
Y1010920D02*
D03*
Y1018540D02*
D03*
Y1026160D02*
D03*
X292100Y1003300D02*
D03*
Y1010920D02*
D03*
Y1018540D02*
D03*
Y1026160D02*
D03*
X314960Y1003300D02*
D03*
Y1010920D02*
D03*
Y1018540D02*
D03*
Y1026160D02*
D03*
X384810Y1206246D02*
D03*
Y1221486D02*
D03*
Y1198626D02*
D03*
Y1213866D02*
D03*
Y1229106D02*
D03*
Y1191006D02*
D03*
X392430Y1229106D02*
D03*
Y1221486D02*
D03*
Y1213866D02*
D03*
Y1206246D02*
D03*
Y1198626D02*
D03*
Y1191006D02*
D03*
X397764Y1129792D02*
D03*
X413004D02*
D03*
X390144D02*
D03*
X405384D02*
D03*
X420624D02*
D03*
X382524D02*
D03*
X420624Y1122172D02*
D03*
X413004D02*
D03*
X405384D02*
D03*
X397764D02*
D03*
X390144D02*
D03*
X382524D02*
D03*
X982962Y1151618D02*
D03*
X927354Y1137158D02*
D03*
X983234Y1184402D02*
D03*
X1023620Y1168400D02*
D03*
Y1176020D02*
D03*
X1060958Y1165860D02*
D03*
X930148Y1166114D02*
D03*
X691642Y1032256D02*
D03*
X699262D02*
D03*
X706882D02*
D03*
X714502D02*
D03*
X691642Y1024636D02*
D03*
X699262D02*
D03*
X706882D02*
D03*
X714502D02*
D03*
Y1009396D02*
D03*
X706882D02*
D03*
X699262D02*
D03*
X691642D02*
D03*
X714502Y1017016D02*
D03*
X706882D02*
D03*
X699262D02*
D03*
X691642D02*
D03*
X630936Y1180338D02*
D03*
X638556D02*
D03*
X646176D02*
D03*
X653796D02*
D03*
X630936Y1172718D02*
D03*
X638556D02*
D03*
X646176D02*
D03*
X653796D02*
D03*
Y1165098D02*
D03*
X646176D02*
D03*
X638556D02*
D03*
X630936D02*
D03*
X1116838Y1459484D02*
D03*
X1124458D02*
D03*
X1132078D02*
D03*
X1139698D02*
D03*
X1116838Y1451864D02*
D03*
X1124458D02*
D03*
X1132078D02*
D03*
X1139698D02*
D03*
Y1436624D02*
D03*
X1132078D02*
D03*
X1124458D02*
D03*
X1116838D02*
D03*
X1139698Y1444244D02*
D03*
X1132078D02*
D03*
X1124458D02*
D03*
X1116838D02*
D03*
X871982Y1460754D02*
D03*
X879602D02*
D03*
X887222D02*
D03*
X894842D02*
D03*
X871982Y1453134D02*
D03*
X879602D02*
D03*
X887222D02*
D03*
X894842D02*
D03*
Y1437894D02*
D03*
X887222D02*
D03*
X879602D02*
D03*
X871982D02*
D03*
X894842Y1445514D02*
D03*
X887222D02*
D03*
X879602D02*
D03*
X871982D02*
D03*
X602234Y1461008D02*
D03*
X609854D02*
D03*
X617474D02*
D03*
X625094D02*
D03*
X602234Y1453388D02*
D03*
X609854D02*
D03*
X617474D02*
D03*
X625094D02*
D03*
Y1438148D02*
D03*
X617474D02*
D03*
X609854D02*
D03*
X602234D02*
D03*
X625094Y1445768D02*
D03*
X617474D02*
D03*
X609854D02*
D03*
X602234D02*
D03*
X610254Y1001160D02*
D03*
X723392Y911606D02*
D03*
X731012D02*
D03*
X738632D02*
D03*
X746252D02*
D03*
X723392Y903986D02*
D03*
X731012D02*
D03*
X738632D02*
D03*
X746252D02*
D03*
Y919226D02*
D03*
X738632D02*
D03*
X731012D02*
D03*
X723392D02*
D03*
X746252Y926846D02*
D03*
X738632D02*
D03*
X731012D02*
D03*
X723392D02*
D03*
X604520Y1007110D02*
D03*
X626364Y987552D02*
D03*
X589280Y994664D02*
D03*
X594106Y985266D02*
D03*
X861314Y1183640D02*
D03*
X868934D02*
D03*
X876554D02*
D03*
X884174D02*
D03*
X861314Y1176020D02*
D03*
X868934D02*
D03*
X876554D02*
D03*
X884174D02*
D03*
Y1191260D02*
D03*
X876554D02*
D03*
X868934D02*
D03*
X861314D02*
D03*
X884174Y1198880D02*
D03*
X876554D02*
D03*
X868934D02*
D03*
X861314D02*
D03*
X700024Y1187450D02*
D03*
X707644D02*
D03*
X715264D02*
D03*
X722884D02*
D03*
X700024Y1179830D02*
D03*
X707644D02*
D03*
X715264D02*
D03*
X722884D02*
D03*
Y1195070D02*
D03*
X715264D02*
D03*
X707644D02*
D03*
X700024D02*
D03*
X722884Y1202690D02*
D03*
X715264D02*
D03*
X707644D02*
D03*
X700024D02*
D03*
X497332Y1159256D02*
D03*
X484632Y1189736D02*
D03*
X697992Y948182D02*
D03*
X700786Y974598D02*
D03*
X687832Y1105408D02*
D03*
Y1097788D02*
D03*
X688340Y1089914D02*
D03*
X680212D02*
D03*
X680466Y1097788D02*
D03*
Y1105154D02*
D03*
X687832Y982726D02*
D03*
X509524Y1115822D02*
D03*
X395986Y1015238D02*
D03*
X396240Y1008380D02*
D03*
X358376Y973162D02*
D03*
X384658Y1004922D02*
D03*
X335026Y957326D02*
D03*
X815340Y939800D02*
D03*
X822960D02*
D03*
X830580D02*
D03*
X838200D02*
D03*
X815340Y932180D02*
D03*
X822960D02*
D03*
X830580D02*
D03*
X838200D02*
D03*
Y916940D02*
D03*
X830580D02*
D03*
X822960D02*
D03*
X815340D02*
D03*
X838200Y924560D02*
D03*
X830580D02*
D03*
X822960D02*
D03*
X815340D02*
D03*
X927100Y881380D02*
D03*
X934720D02*
D03*
X927100Y873760D02*
D03*
X934720D02*
D03*
Y858520D02*
D03*
X927100D02*
D03*
X934720Y866140D02*
D03*
X927100D02*
D03*
X942340Y975360D02*
D03*
X949960D02*
D03*
X957580D02*
D03*
X934720D02*
D03*
Y967740D02*
D03*
X942340D02*
D03*
X949960D02*
D03*
X957580D02*
D03*
Y952500D02*
D03*
X949960D02*
D03*
X942340D02*
D03*
X934720D02*
D03*
Y960120D02*
D03*
X957580D02*
D03*
X949960D02*
D03*
X942340D02*
D03*
X1188720Y1130300D02*
D03*
X1196340D02*
D03*
X1203960D02*
D03*
X1181100D02*
D03*
Y1122680D02*
D03*
X1188720D02*
D03*
X1196340D02*
D03*
X1203960D02*
D03*
Y1107440D02*
D03*
X1196340D02*
D03*
X1188720D02*
D03*
X1181100D02*
D03*
X1203960Y1115060D02*
D03*
X1196340D02*
D03*
X1188720D02*
D03*
X1181100D02*
D03*
X1188720Y1203960D02*
D03*
X1196340D02*
D03*
X1203960D02*
D03*
X1211580D02*
D03*
X1188720Y1196340D02*
D03*
X1196340D02*
D03*
X1203960D02*
D03*
X1211580D02*
D03*
Y1181100D02*
D03*
X1203960D02*
D03*
X1196340D02*
D03*
X1188720D02*
D03*
X1211580Y1188720D02*
D03*
X1203960D02*
D03*
X1196340D02*
D03*
X1188720D02*
D03*
X635000Y784860D02*
D03*
X642620D02*
D03*
X650240D02*
D03*
X627380D02*
D03*
Y777240D02*
D03*
X635000D02*
D03*
X642620D02*
D03*
X650240D02*
D03*
Y792480D02*
D03*
X642620D02*
D03*
X635000D02*
D03*
X627380D02*
D03*
X1158240Y800100D02*
D03*
X650240D02*
D03*
X642620D02*
D03*
X635000D02*
D03*
X627380D02*
D03*
X635254Y976884D02*
D03*
X653288Y1047750D02*
D03*
X653488Y1032510D02*
D03*
X1132840Y1234440D02*
D03*
Y1226820D02*
D03*
Y1219200D02*
D03*
Y1211580D02*
D03*
Y1203960D02*
D03*
Y1196340D02*
D03*
X1140460Y1234440D02*
D03*
Y1196340D02*
D03*
Y1211580D02*
D03*
Y1226820D02*
D03*
Y1203960D02*
D03*
Y1219200D02*
D03*
X1117600Y1249680D02*
D03*
Y1242060D02*
D03*
Y1234440D02*
D03*
Y1226820D02*
D03*
Y1219200D02*
D03*
Y1211580D02*
D03*
X1125220Y1249680D02*
D03*
Y1211580D02*
D03*
Y1226820D02*
D03*
Y1242060D02*
D03*
Y1219200D02*
D03*
Y1234440D02*
D03*
X988060Y1247140D02*
D03*
Y1239520D02*
D03*
Y1231900D02*
D03*
Y1224280D02*
D03*
Y1216660D02*
D03*
Y1209040D02*
D03*
X995680Y1247140D02*
D03*
Y1209040D02*
D03*
Y1224280D02*
D03*
Y1239520D02*
D03*
Y1216660D02*
D03*
Y1231900D02*
D03*
X490110Y1247140D02*
D03*
Y1239520D02*
D03*
Y1231900D02*
D03*
X497730Y1247140D02*
D03*
Y1239520D02*
D03*
Y1231900D02*
D03*
X624840Y1239520D02*
D03*
Y1247140D02*
D03*
Y1231900D02*
D03*
X632460D02*
D03*
X617220D02*
D03*
X632460Y1239520D02*
D03*
X617220D02*
D03*
X632460Y1247140D02*
D03*
X617220D02*
D03*
X794004Y1120140D02*
D03*
X1004316Y1163066D02*
D03*
X987708Y1193034D02*
D03*
X696722Y1159002D02*
D03*
X482346D02*
D03*
X451460Y1035148D02*
D03*
X483464Y1018384D02*
D03*
X483718Y977948D02*
D03*
X435458Y987904D02*
D03*
X385010Y1017524D02*
D03*
X1164590Y912368D02*
D03*
X1164844Y895858D02*
D03*
Y887476D02*
D03*
X1164590Y920242D02*
D03*
X1164844Y903732D02*
D03*
X1172464Y912368D02*
D03*
X1172718Y895858D02*
D03*
Y887476D02*
D03*
X1172464Y920242D02*
D03*
X1172718Y903732D02*
D03*
X927354Y802820D02*
D03*
X1082308Y932012D02*
D03*
X1063258Y867242D02*
D03*
X970026Y1077976D02*
D03*
X969772Y1094486D02*
D03*
Y1102868D02*
D03*
X970026Y1070102D02*
D03*
X969772Y1086612D02*
D03*
X977646D02*
D03*
X977900Y1070102D02*
D03*
X977646Y1102868D02*
D03*
Y1094486D02*
D03*
X977900Y1077976D02*
D03*
X985012Y1086612D02*
D03*
X985266Y1070102D02*
D03*
X985012Y1102868D02*
D03*
Y1094486D02*
D03*
X985266Y1077976D02*
D03*
X992124Y1086358D02*
D03*
X992378Y1069848D02*
D03*
X992124Y1102614D02*
D03*
Y1094232D02*
D03*
X992378Y1077722D02*
D03*
X946150Y1108964D02*
D03*
X962660Y1109218D02*
D03*
X929894Y1108964D02*
D03*
X938276D02*
D03*
X954786Y1109218D02*
D03*
X966470Y1052576D02*
D03*
X966724Y1019810D02*
D03*
Y1028192D02*
D03*
X966470Y1044702D02*
D03*
X957834Y1052576D02*
D03*
X958596Y1019810D02*
D03*
X934466D02*
D03*
X946404Y1101090D02*
D03*
X962660D02*
D03*
X954278D02*
D03*
X937768Y1100836D02*
D03*
X999490Y1086104D02*
D03*
X999744Y1069594D02*
D03*
X999490Y1102360D02*
D03*
Y1093978D02*
D03*
X999744Y1077468D02*
D03*
X1105408Y1019556D02*
D03*
X1105154Y1036066D02*
D03*
Y1044448D02*
D03*
X1105408Y1011682D02*
D03*
X1105154Y1028192D02*
D03*
X1098042Y1019810D02*
D03*
X1097788Y1036320D02*
D03*
Y1044702D02*
D03*
X1098042Y1011936D02*
D03*
X1097788Y1028446D02*
D03*
X1090930Y1020064D02*
D03*
X1090676Y1036574D02*
D03*
Y1044956D02*
D03*
X1090930Y1012190D02*
D03*
X1090676Y1028700D02*
D03*
X1083564Y1020064D02*
D03*
X1083310Y1036574D02*
D03*
Y1044956D02*
D03*
X1083564Y1012190D02*
D03*
X1083310Y1028700D02*
D03*
X1075436D02*
D03*
X1075690Y1012190D02*
D03*
X1075436Y1044956D02*
D03*
Y1036574D02*
D03*
X1075690Y1020064D02*
D03*
X1218692Y827204D02*
D03*
X1202182Y826950D02*
D03*
X1193800D02*
D03*
X1226566Y827204D02*
D03*
X1210056Y826950D02*
D03*
X1218692Y819330D02*
D03*
X1202182Y819076D02*
D03*
X1193800D02*
D03*
X1226566Y819330D02*
D03*
X1210056Y819076D02*
D03*
X1218692Y811456D02*
D03*
X1193800Y811202D02*
D03*
X1226566Y811456D02*
D03*
X1210056Y811202D02*
D03*
X943610Y787072D02*
D03*
X960120Y787326D02*
D03*
X927354Y787072D02*
D03*
X935736D02*
D03*
X952246Y787326D02*
D03*
X943610Y794946D02*
D03*
X960120Y795200D02*
D03*
X927354Y794946D02*
D03*
X935736D02*
D03*
X952246Y795200D02*
D03*
X943610Y802820D02*
D03*
X960120Y803074D02*
D03*
X935736Y802820D02*
D03*
X952246Y803074D02*
D03*
X1033526Y772848D02*
D03*
X1050036Y773102D02*
D03*
X1017270Y772848D02*
D03*
X1025652D02*
D03*
X1042162Y773102D02*
D03*
X1033272Y781230D02*
D03*
X1049782Y781484D02*
D03*
X1017016Y781230D02*
D03*
X1025398D02*
D03*
X1041908Y781484D02*
D03*
X1033272Y789358D02*
D03*
X1049782Y789612D02*
D03*
X1017016Y789358D02*
D03*
X1025398D02*
D03*
X1041908Y789612D02*
D03*
X1033272Y797232D02*
D03*
X1049782Y797486D02*
D03*
X1017016Y797232D02*
D03*
X1025398D02*
D03*
X1041908Y797486D02*
D03*
X1033272Y805106D02*
D03*
X1049782Y805360D02*
D03*
X1017016Y805106D02*
D03*
X1025398D02*
D03*
X1041908Y805360D02*
D03*
X1055116Y889434D02*
D03*
X1063498D02*
D03*
X1054862Y897816D02*
D03*
X1063244D02*
D03*
X1054862Y905944D02*
D03*
X1063244D02*
D03*
X552450Y1065784D02*
D03*
X561340Y1060704D02*
D03*
X565150Y1053084D02*
D03*
X527050Y1012444D02*
D03*
X520700Y1020064D02*
D03*
X524510Y976884D02*
D03*
Y967994D02*
D03*
X533400D02*
D03*
X952754Y1200150D02*
D03*
X1096518Y1200658D02*
D03*
X585470Y1198118D02*
D03*
X299212Y957834D02*
D03*
X545338Y1161288D02*
D03*
X545084Y1136904D02*
D03*
X803148Y1117854D02*
D03*
X812292Y1118108D02*
D03*
X821436Y1117346D02*
D03*
X776735Y1032764D02*
D03*
X807466Y1008380D02*
D03*
X868172Y985774D02*
D03*
X710438Y1100074D02*
D03*
X717740Y1094994D02*
D03*
X943864Y770562D02*
D03*
X960374Y770816D02*
D03*
X927608Y770562D02*
D03*
X935990D02*
D03*
X952500Y770816D02*
D03*
X943610Y778944D02*
D03*
X960120Y779198D02*
D03*
X927354Y778944D02*
D03*
X935736D02*
D03*
X952246Y779198D02*
D03*
X770034Y773590D02*
D03*
X1202182Y811202D02*
D03*
X648970Y1100328D02*
D03*
X965708Y1200150D02*
D03*
X1083818Y1200658D02*
D03*
X778510Y1051306D02*
D03*
X779526Y1043686D02*
D03*
X772414Y1056132D02*
D03*
X580898Y1280160D02*
D03*
X448674Y1279762D02*
D03*
X697992Y1106678D02*
D03*
X598678Y1199388D02*
D03*
X591566Y1170830D02*
D03*
X959104Y1173370D02*
D03*
X1090930D02*
D03*
X663956Y1092200D02*
D03*
X690372Y1065784D02*
D03*
X725805Y1061085D02*
D03*
X741426Y1029462D02*
D03*
X627380Y1107440D02*
D03*
X454406Y1197610D02*
D03*
X467360D02*
D03*
X743204Y1325118D02*
D03*
X753948Y1325042D02*
D03*
X652780Y1376680D02*
D03*
X668020D02*
D03*
Y1366520D02*
D03*
X652780D02*
D03*
X668020Y1356360D02*
D03*
X652780D02*
D03*
X668020Y1346200D02*
D03*
X652780D02*
D03*
X668020Y1336040D02*
D03*
X652780D02*
D03*
X668020Y1325880D02*
D03*
X652780D02*
D03*
X668020Y1315720D02*
D03*
X652780D02*
D03*
X668020Y1305560D02*
D03*
X652780D02*
D03*
X668020Y1275080D02*
D03*
X652780D02*
D03*
X668020Y1264920D02*
D03*
X652780D02*
D03*
X668020Y1254760D02*
D03*
X652780D02*
D03*
X660400Y1244600D02*
D03*
X645160D02*
D03*
X1165860Y1381760D02*
D03*
X1150620D02*
D03*
X1165860Y1371600D02*
D03*
X1150620D02*
D03*
X1165860Y1361440D02*
D03*
X1150620D02*
D03*
X1165860Y1351280D02*
D03*
X1150620D02*
D03*
X1165860Y1341120D02*
D03*
X1150620D02*
D03*
X1165860Y1330960D02*
D03*
X1150620D02*
D03*
X1165860Y1320800D02*
D03*
X1150620D02*
D03*
X1165860Y1310640D02*
D03*
X1150620D02*
D03*
X1165860Y1275080D02*
D03*
X1150620D02*
D03*
X1165860Y1264920D02*
D03*
X1150620D02*
D03*
X1158240Y1254760D02*
D03*
X1143000D02*
D03*
X1150620Y1244600D02*
D03*
X1135380D02*
D03*
X1165860Y1300480D02*
D03*
X1150620D02*
D03*
X668020Y1297940D02*
D03*
X652780D02*
D03*
X515620Y1203960D02*
D03*
Y1196340D02*
D03*
Y1188720D02*
D03*
Y1181100D02*
D03*
Y1173480D02*
D03*
Y1165860D02*
D03*
X523240Y1203960D02*
D03*
Y1165860D02*
D03*
Y1181100D02*
D03*
Y1196340D02*
D03*
Y1173480D02*
D03*
Y1188720D02*
D03*
X1016000Y1198880D02*
D03*
Y1191260D02*
D03*
Y1183640D02*
D03*
Y1176020D02*
D03*
Y1168400D02*
D03*
X1023620Y1183640D02*
D03*
Y1198880D02*
D03*
Y1191260D02*
D03*
D82*
X768096Y1098042D02*
D03*
X758444D02*
D03*
X323088Y1213358D02*
D03*
X315214D02*
D03*
X323088Y1220978D02*
D03*
X315468Y1220724D02*
D03*
X460248Y1170686D02*
D03*
D83*
X1028700Y1257300D02*
D03*
X520700Y1254760D02*
D03*
X994029Y785368D02*
D03*
X1039368Y1309116D02*
D03*
Y1334516D02*
D03*
Y1283716D02*
D03*
X1059688Y1334516D02*
D03*
X1039368Y1358646D02*
D03*
X1059688D02*
D03*
X1078738Y1283716D02*
D03*
X1059688Y1309116D02*
D03*
Y1283716D02*
D03*
X1099058D02*
D03*
X1078738Y1309116D02*
D03*
X1099058D02*
D03*
X1078738Y1334516D02*
D03*
Y1358646D02*
D03*
X1099058D02*
D03*
Y1334516D02*
D03*
X539750Y1306576D02*
D03*
Y1331976D02*
D03*
Y1281176D02*
D03*
X560070Y1331976D02*
D03*
X539750Y1356106D02*
D03*
X560070D02*
D03*
X579120Y1281176D02*
D03*
X560070Y1306576D02*
D03*
Y1281176D02*
D03*
X599440D02*
D03*
X579120Y1306576D02*
D03*
X599440D02*
D03*
X579120Y1331976D02*
D03*
Y1356106D02*
D03*
X599440D02*
D03*
Y1331976D02*
D03*
X409448Y1285748D02*
D03*
Y1309878D02*
D03*
Y1335278D02*
D03*
X429768D02*
D03*
X409448Y1360678D02*
D03*
X429768D02*
D03*
X448818Y1285748D02*
D03*
X429768Y1309878D02*
D03*
Y1285748D02*
D03*
X469138D02*
D03*
X448818Y1309878D02*
D03*
X469138D02*
D03*
X448818Y1335278D02*
D03*
Y1360678D02*
D03*
X469138D02*
D03*
Y1335278D02*
D03*
X909320Y1286764D02*
D03*
Y1310894D02*
D03*
Y1336294D02*
D03*
X929640D02*
D03*
X909320Y1361694D02*
D03*
X929640D02*
D03*
X948690Y1286764D02*
D03*
X929640Y1310894D02*
D03*
Y1286764D02*
D03*
X969010D02*
D03*
X948690Y1310894D02*
D03*
X969010D02*
D03*
X948690Y1336294D02*
D03*
Y1361694D02*
D03*
X969010D02*
D03*
Y1336294D02*
D03*
X391160Y1170940D02*
D03*
D84*
X994664Y1055116D02*
D03*
X1026428Y897032D02*
D03*
X1039128D02*
D03*
X1074674Y1413256D02*
D03*
X942086Y1412240D02*
D03*
X574294Y1412494D02*
D03*
X439674Y1409954D02*
D03*
D85*
X469900Y1170830D02*
D03*
Y1188830D02*
D03*
X968248Y1173370D02*
D03*
Y1191370D02*
D03*
X600710Y1170830D02*
D03*
Y1188830D02*
D03*
X1099058Y1173370D02*
D03*
Y1191370D02*
D03*
X582930Y1170830D02*
D03*
Y1188830D02*
D03*
X1081278Y1173370D02*
D03*
Y1191370D02*
D03*
X441300Y1021288D02*
D03*
Y1003288D02*
D03*
X942608Y1052392D02*
D03*
Y1070392D02*
D03*
X950468Y1173370D02*
D03*
Y1191370D02*
D03*
X452120Y1170830D02*
D03*
Y1188830D02*
D03*
D86*
X823964Y797674D02*
D03*
Y843674D02*
D03*
D87*
Y820674D02*
D03*
D88*
X885964Y820674D02*
D03*
D89*
X946670Y1036126D02*
D03*
Y1086926D02*
D03*
D90*
X1068554Y1061526D02*
D03*
D91*
X824992Y986402D02*
D03*
Y1001402D02*
D03*
X728726Y1060584D02*
D03*
Y1045584D02*
D03*
X700786Y983100D02*
D03*
Y998100D02*
D03*
X699008Y1057028D02*
D03*
Y1042028D02*
D03*
D92*
X1035050Y1263650D02*
X1045608D01*
X1028700Y1257300D02*
X1035050Y1263650D01*
X467971Y1260609D02*
X474211D01*
X492760Y1242060D01*
X603250Y1261110D02*
X622300Y1242060D01*
X1096628Y1263650D02*
X1108774D01*
X1127824Y1244600D01*
X971550Y1263650D02*
X990600Y1244600D01*
X529730Y1261110D02*
X547260D01*
X523380Y1254760D02*
X529730Y1261110D01*
M02*
