G04*
G04 #@! TF.GenerationSoftware,Altium Limited,Altium Designer,18.0.12 (696)*
G04*
G04 Layer_Color=16711935*
%FSLAX44Y44*%
%MOMM*%
G71*
G01*
G75*
%ADD13C,0.2540*%
%ADD100C,0.1000*%
%ADD101C,0.0508*%
D13*
X389700Y1361300D02*
X493840D01*
X389700Y1262240D02*
Y1361300D01*
Y1262240D02*
X493840D01*
Y1361300D01*
X888048Y1363840D02*
X992188D01*
X888048Y1264780D02*
Y1363840D01*
Y1264780D02*
X992188D01*
Y1363840D01*
X1018858D02*
X1122998D01*
X1018858Y1264780D02*
Y1363840D01*
Y1264780D02*
X1122998D01*
Y1363840D01*
X520510Y1361300D02*
X624650D01*
X520510Y1262240D02*
Y1361300D01*
Y1262240D02*
X624650D01*
Y1361300D01*
D100*
X406486Y995174D02*
G03*
X406486Y995174I-5000J0D01*
G01*
X1053778Y908032D02*
G03*
X1053778Y908032I-5000J0D01*
G01*
X406740Y1027362D02*
G03*
X406740Y1027362I-5000J0D01*
G01*
X370486Y1036174D02*
X410486D01*
X370486Y986174D02*
X410486D01*
X370486D02*
Y1036174D01*
X410486Y986174D02*
Y1036174D01*
X1007778Y917032D02*
X1057778D01*
X1007778Y877032D02*
X1057778D01*
Y917032D01*
X1007778Y877032D02*
Y917032D01*
X370740Y986362D02*
X410740D01*
X370740Y1036362D02*
X410740D01*
X370740Y986362D02*
Y1036362D01*
X410740Y986362D02*
Y1036362D01*
X1004554Y1009526D02*
Y1113526D01*
X1098554Y1009526D02*
Y1113526D01*
X1004554Y1009526D02*
X1098554D01*
X1004554Y1113526D02*
X1098554D01*
D101*
X748003Y970077D02*
Y1070077D01*
X648003D02*
X748003D01*
X648003Y970077D02*
Y1070077D01*
Y970077D02*
X748003D01*
X838708Y788416D02*
Y853694D01*
X839216Y854202D01*
X869950D01*
X838708Y788416D02*
X869950D01*
Y854202D01*
M02*
