M48
;Layer_Color=9474304
;FILE_FORMAT=4:4
METRIC,LZ
;TYPE=PLATED
T1F00S00C0.3048
T2F00S00C0.4000
T3F00S00C0.7500
T4F00S00C0.7600
T5F00S00C0.7620
T6F00S00C1.0160
T7F00S00C1.6000
T8F00S00C3.2000
T9F00S00C3.2500
%
T01
X00927608Y00770562
X0093599
X00943864
X0094361Y00778944
X00935736
Y00787072
X0094361
X00952246Y00787326
X0096012
Y00779198
X00952246
X009525Y00770816
X00960374
X00927354Y00778944
Y00787072
X01017016Y00789358
Y0078123
X01025398
X01033272
Y00789358
X01025398
X01025652Y00772848
X01033526
X01042162Y00773102
X01050036
X01049782Y00781484
X01041908
Y00789612
X01049782
X0101727Y00772848
X00770034Y0077359
X0065024Y0077724
Y0078486
X0064262
X00635
X0062738
Y0077724
X00635
X0064262
Y0079248
X0065024
X00635
X0062738
X0039624Y0100838
X00395986Y01015238
X0038501Y01017524
X00384658Y01004922
X00358376Y00973162
X00335026Y00957326
X00299212Y00957834
X0029972Y010033
X0030734
Y0101092
Y0101854
Y0102616
X0029972
Y0101854
Y0101092
X002921
Y010033
Y0101854
Y0102616
X0031496
Y0101854
Y0101092
Y010033
X00382524Y01122172
Y01129792
X00390144
Y01122172
X00397764
Y01129792
X00405384
X00413004
X00420624
Y01122172
X00413004
X00405384
X00509524Y01115822
X00497332Y01159256
X00482346Y01159002
X00484632Y01189736
X0051562Y0118872
Y011811
Y0117348
Y0116586
X0052324
Y0117348
Y011811
Y0118872
X00545338Y01161288
X00545084Y01136904
X0055245Y01065784
X0056134Y01060704
X0056515Y01053084
X005207Y01020064
X0052705Y01012444
X0052451Y00976884
Y00967994
X005334
X00483718Y00977948
X00483464Y01018384
X0045146Y01035148
X00435458Y00987904
X0058928Y00994664
X00594106Y00985266
X00610254Y0100116
X0060452Y0100711
X00626364Y00987552
X00635254Y00976884
X00687832Y00982726
X00700786Y00974598
X00697992Y00948182
X00723392Y00926846
Y00919226
Y00911606
X00731012
X00738632
X00746252
Y00903986
X00738632
X00731012
X00723392
X00731012Y00919226
X00738632
X00746252
Y00926846
X00738632
X00731012
X00714502Y01009396
X00706882
X00699262
X00691642
Y01017016
Y01024636
Y01032256
X00699262
X00706882
X00714502
Y01024636
X00706882
X00699262
Y01017016
X00706882
X00714502
X00741426Y01029462
X00776735Y01032764
X00779526Y01043686
X0077851Y01051306
X00772414Y01056132
X00725805Y01061085
X00690372Y01065784
X0068834Y01089914
X00680212
X00680466Y01097788
X00687832
Y01105408
X00680466Y01105154
X00697992Y01106678
X00710438Y01100074
X0071774Y01094994
X00663956Y010922
X0064897Y01100328
X0062738Y0110744
X00630936Y01165098
Y01172718
Y01180338
X00638556
X00646176
X00653796
Y01172718
X00646176
X00638556
Y01165098
X00646176
X00653796
X00696722Y01159002
X00700024Y0117983
Y0118745
X00707644
X00715264
X00722884
Y0117983
X00715264
X00707644
X00591566Y0117083
X00653288Y0104775
X00653488Y0103251
X0065024Y008001
X0064262
X00635
X0062738
X00927354Y0080282
Y00794946
X00935736
X0094361
Y0080282
X00935736
X00952246Y00803074
Y007952
X0096012
Y00803074
X01017016Y00805106
Y00797232
X01025398
X01033272
Y00805106
X01025398
X01041908Y0080536
Y00797486
X01049782
Y0080536
X01063258Y00867242
X01063498Y00889434
X01055116
X01054862Y00897816
Y00905944
X01063244
Y00897816
X01082308Y00932012
X01083564Y0101219
X0109093
X01098042Y01011936
X01105408Y01011682
Y01019556
X01098042Y0101981
X0109093Y01020064
X01083564
X0107569
Y0101219
X01075436Y010287
X0108331
X01090676
X01097788Y01028446
X01105154Y01028192
Y01036066
X01097788Y0103632
X01090676Y01036574
X0108331
X01075436
Y01044956
X0108331
X01090676
X01097788Y01044702
X01105154Y01044448
X00999744Y01069594
X00992378Y01069848
X00985266Y01070102
X009779
X00970026
Y01077976
X009779
X00985266
X00992378Y01077722
X00999744Y01077468
X0099949Y01086104
X00992124Y01086358
X00985012Y01086612
X00977646
X00969772
Y01094486
X00977646
X00985012
X00992124Y01094232
X0099949Y01093978
Y0110236
X00992124Y01102614
X00985012Y01102868
X00977646
X00969772
X0096266Y0110109
Y01109218
X00954786
X00954278Y0110109
X00946404
X0094615Y01108964
X00938276
X00929894
X00937768Y01100836
X00927354Y01137158
X00930148Y01166114
X00959104Y0117337
X00983234Y01184402
X00982962Y01151618
X01004316Y01163066
X01016Y011684
X0102362
Y0117602
X01016
Y0118364
X0102362
X01060958Y0116586
X0109093Y0117337
X0118872Y011811
Y0118872
Y011303
X011811
Y0112268
X0118872
Y0111506
Y0110744
X011811
Y0111506
X01172464Y00920242
X0116459
Y00912368
X01172464
X01172718Y00903732
X01164844
Y00895858
X01172718
Y00887476
X01164844
X0115824Y008001
X0093472Y0085852
X009271
Y0086614
Y0087376
Y0088138
X0093472
Y0087376
Y0086614
Y009525
X0094234
X0094996
X0095758
Y0096012
Y0096774
Y0097536
X0094996
X0094234
X0093472
Y0096774
X0094234
X0094996
Y0096012
X0094234
X0093472
X00934466Y0101981
X00958596
X00966724
Y01028192
X0096647Y01044702
Y01052576
X00957834
X00868172Y00985774
X008382Y009398
X0083058
X0082296
X0081534
Y0093218
X0082296
X0083058
X008382
Y0092456
Y0091694
X0083058
X0082296
X0081534
Y0092456
X0082296
X0083058
X00807466Y0100838
X00803148Y01117854
X00812292Y01118108
X00821436Y01117346
X00794004Y0112014
X00861314Y0117602
Y0118364
X00868934
X00876554
X00884174
Y0117602
X00876554
X00868934
X0119634Y011811
X0120396
X0121158
Y0118872
X0120396
X0119634
Y011303
X0120396
Y0112268
X0119634
Y0111506
Y0110744
X0120396
Y0111506
X01202182Y0082695
X01210056
Y00819076
X01202182
Y00811202
X01210056
X01218692Y00811456
Y0081933
Y00827204
X01226566
Y0081933
Y00811456
X011938Y00811202
Y00819076
Y0082695
X0119634Y0119634
Y0120396
X0120396
X0121158
Y0119634
X0120396
X0118872
Y0120396
X0114046
X0113284
Y0121158
Y012192
Y0122682
Y0123444
X0114046
Y0122682
Y012192
Y0121158
Y0119634
X0113284
X0112522Y0121158
X011176
Y012192
Y0122682
Y0123444
Y0124206
Y0124968
X0112522
Y0124206
Y0123444
Y0122682
Y012192
X0113538Y012446
X0115062
X0115824Y0125476
X01143
X0115062Y0126492
Y0127508
X0116586
Y0126492
Y0130048
Y0131064
Y013208
Y0133096
Y0134112
Y0135128
Y0136144
Y013716
Y0138176
X0115062
Y013716
Y0136144
Y0135128
Y0134112
Y0133096
Y013208
Y0131064
Y0130048
X01139698Y01436624
X01132078
X01124458
X01116838
Y01444244
Y01451864
Y01459484
X01124458
X01132078
X01139698
Y01451864
X01132078
X01124458
Y01444244
X01132078
X01139698
X00894842Y01445514
Y01453134
Y01460754
X00887222
X00879602
X00871982
Y01453134
X00879602
X00887222
Y01445514
Y01437894
X00894842
X00879602
X00871982
Y01445514
X00879602
X00876554Y0119888
Y0119126
X00884174
Y0119888
X00868934
Y0119126
X00861314
Y0119888
X00952754Y0120015
X00965708
X00987708Y01193034
X0098806Y0120904
Y0121666
Y0122428
Y012319
Y0123952
Y0124714
X0099568
Y0123952
Y012319
Y0122428
Y0121666
Y0120904
X01016Y0119888
Y0119126
X0102362
Y0119888
X01083818Y01200658
X01096518
X00722884Y0120269
Y0119507
X00715264
X00707644
X00700024
Y0120269
X00707644
X00715264
X006604Y012446
X0064516
X0063246Y0124714
X0062484
Y0123952
Y012319
X0063246
Y0123952
X0061722
Y012319
Y0124714
X0065278Y0125476
Y0126492
Y0127508
X0066802
Y0126492
Y0125476
Y0129794
Y0130556
Y0131572
Y0132588
Y0133604
Y013462
Y0135636
Y0136652
Y0137668
X0065278
Y0136652
Y0135636
Y013462
Y0133604
Y0132588
Y0131572
Y0130556
Y0129794
X00580898Y0128016
X0058547Y01198118
X00598678Y01199388
X0052324Y0119634
X0051562
Y0120396
X0052324
X0049773Y012319
X0049011
Y0123952
Y0124714
X0049773
Y0123952
X0046736Y0119761
X00454406
X00448674Y01279762
X00602234Y01438148
X00609854
X00617474
X00625094
Y01445768
Y01453388
Y01461008
X00617474
X00609854
X00602234
Y01453388
X00609854
X00617474
Y01445768
X00609854
X00602234
X00743204Y01325118
X00753948Y01325042
X0039243Y01229106
X0038481
Y01221486
Y01213866
Y01206246
Y01198626
Y01191006
X0039243
Y01198626
Y01206246
Y01213866
Y01221486
T02
X00460248Y01170686
X00758444Y01098042
X00768096
X00323088Y01213358
Y01220978
X00315468Y01220724
X00315214Y01213358
T03
X01210018Y0128905
Y0139446
X01160018
Y0128905
X0071167Y0128651
X0066167
Y0139192
X0071167
T04
X00346448Y00910972
X00371848
X00384548Y00936372
X00359148
X00333748
X00397248Y00910972
X00490974Y0091121
X00516374
X00541774
X00529074Y0093661
X00503674
X00478274
T05
X00994029Y00785368
X0039116Y0117094
X00994664Y01055116
X01026428Y00897032
X01039128
X010287Y012573
X01039368Y01283716
X01059688
X01078738
X01099058
Y01309116
X01078738
X01059688
X01039368
Y01334516
X01059688
X01078738
X01099058
Y01358646
X01078738
X01059688
X01039368
X0096901Y01361694
X0094869
X0092964
X0090932
Y01336294
X0092964
X0094869
X0096901
Y01310894
X0094869
X0092964
X0090932
Y01286764
X0092964
X0094869
X0096901
X00942086Y0141224
X01074674Y01413256
X00574294Y01412494
X0057912Y01356106
X0056007
X0053975
Y01331976
X0056007
X0057912
X0059944
Y01356106
Y01306576
X0057912
X0056007
X0053975
Y01281176
X0056007
X0057912
X0059944
X005207Y0125476
X00469138Y01285748
X00448818
X00429768
X00409448
Y01309878
X00429768
X00448818
X00469138
Y01335278
X00448818
X00429768
X00409448
Y01360678
X00429768
X00448818
X00469138
X00439674Y01409954
T06
X00672592Y0077724
X00697992
X00723392
X00748792
X00280924Y0107315
Y0109855
Y0112395
Y0114935
Y0117475
X0059944Y00903318
Y00877918
X00673608Y00841756
X00699008
X00724408
X00749808
X0080391Y0128778
X0082931
X0085471
Y0139573
X0082931
X0080391
X0077851
Y0128778
X0035687Y0129524
X0033147
X0030607
X0028067
Y0140097
X0030607
X0033147
X0035687
T07
X01138188Y0100729
Y01057582
X0103251Y014351
X00982218
X00534162Y0143256
X0048387
T08
X01222502Y00780796
X00275085Y00779503
X01225Y01475
X00275
T09
X00314748Y00847472
X00416348
X00459274Y0084771
X00560874
M30
